<svg version="1.1" id="Layer_1" xmlns="http://www.w3.org/2000/svg" x="0" y="0" viewBox="0 0 107.81 110.5" style="enable-background:new 0 0 107.81 110.5" xml:space="preserve">
    <path class="st0" d="M36.97 39.37h-9.69v-.77c.03-1.9-.08-3.82.12-5.7.64-6.19 3.63-11.02 8.83-14.43 3.13-2.05 6.62-2.99 10.37-2.98 9.42.02 18.83.07 28.25-.01 9.62-.09 17.83 7.05 19.18 16.47.14.96.21 1.93.21 2.9.01 13.96.01 27.92.01 41.88 0 9.56-6.71 17.52-16.14 19.13-1.01.17-2.05.23-3.07.23-9.49.02-18.99.02-28.48.01-9.61-.01-17.68-6.95-19.02-16.49-.31-2.23-.18-4.53-.24-6.8-.01-.5 0-1.01 0-1.56h9.66c.01.23.03.46.03.68.02 1.88-.06 3.77.07 5.65.32 4.87 4.37 8.73 9.23 8.75 9.67.04 19.34.05 29.01 0 5.21-.03 9.28-4.34 9.28-9.7.01-12.45 0-24.89 0-37.34 0-1.75.09-3.5-.07-5.24-.46-5.23-4.45-8.82-9.7-8.83-7.4-.01-14.8 0-22.19 0-2 0-4-.02-6 0-5.47.05-9.59 4.2-9.62 9.67-.04 1.48-.03 2.95-.03 4.48z" style="fill:#26272b"/>
    <path class="st0" d="M50.67 74.83v-1.89c0-3.14-.01-6.29.01-9.43 0-.57-.17-.7-.72-.7-10.21.02-20.42.01-30.63.01h-.75V47.34h32.08V36.51c8.43 6.36 16.74 12.63 25.13 18.97-8.36 6.44-16.68 12.84-25.12 19.35z" style="fill:#26272b"/>
</svg>
