<svg xmlns="http://www.w3.org/2000/svg" viewBox="0 0 59.95 59.89" style="enable-background:new 0 0 59.95 59.89" xml:space="preserve">
    <path d="M31.13 52.23C18.71 52.23 8.6 42.12 8.6 29.7c0-12.42 10.11-22.53 22.53-22.53S53.66 17.28 53.66 29.7c0 12.42-10.11 22.53-22.53 22.53zm0-43.06c-11.32 0-20.53 9.21-20.53 20.53s9.21 20.53 20.53 20.53 20.53-9.21 20.53-20.53S42.45 9.17 31.13 9.17z" style="fill:#f19021"/>
    <path d="M31.13 34.02c-.18.17-.34.32-.49.48-1.43 1.43-2.9 2.83-4.28 4.3-1.02 1.08-2.62 1.12-3.6 0-.26-.3-.57-.56-.85-.85-.97-1.01-.98-2.33 0-3.32 1.46-1.48 2.95-2.95 4.42-4.42.15-.15.3-.31.48-.5-.18-.18-.33-.34-.48-.49l-4.42-4.42c-.71-.71-.97-1.58-.55-2.47.49-1.05 1.33-1.87 2.37-2.38.82-.39 1.65-.18 2.34.43.27.24.52.5.77.76 1.28 1.27 2.55 2.55 3.83 3.83.14.14.29.27.46.44.18-.17.34-.32.49-.48l4.42-4.42c.71-.7 1.58-.97 2.48-.56 1.05.49 1.88 1.32 2.38 2.37.39.82.19 1.65-.43 2.34-.29.33-.62.63-.93.94l-3.66 3.66c-.14.14-.27.29-.43.46.17.18.32.34.47.49 1.43 1.43 2.83 2.89 4.3 4.28 1.09 1.03 1.11 2.62 0 3.6-.3.26-.57.57-.85.85-1.01.97-2.33.98-3.33-.01-1.5-1.48-2.98-2.97-4.47-4.46-.13-.15-.27-.28-.44-.45z" style="fill:#f09022"/>
</svg>
