<svg enable-background="new 0 0 59.95 59.89" viewBox="0 0 59.95 59.89" xmlns="http://www.w3.org/2000/svg"><g fill="#dadada"><path d="m17.36 28.72c0-1.7-.02-3.23 0-4.77.02-1.7.59-2.27 2.3-2.28 1.5-.01 3 0 4.76 0v-4.37c.01-2.24.46-2.69 2.74-2.69h4.32v-5.79c0-2.72.34-3.05 3.11-3.05 1.69 0 3.39-.01 5.08 0 1.88.02 2.44.57 2.44 2.44.01 6.25 0 12.51 0 18.76v1.75c1.01 0 1.94.04 2.85-.01 2.3-.13 4.08.85 5.56 2.52 4.27 4.83 5.19 13.97 1.89 19.48-1.73 2.9-4.14 4.79-7.73 4.35-3.5-.43-5.64-2.52-6.7-5.82-.64-1.99-1.88-2.9-3.98-2.92-2.82-.03-5.64-.02-8.46 0-2.19.02-3.42.91-4.08 2.97-1.03 3.19-3.1 5.23-6.46 5.74-3.51.53-5.96-1.2-7.77-4.01-3.57-5.56-2.61-15.23 1.93-20.04 1.42-1.51 3.12-2.37 5.25-2.26.94.03 1.87 0 2.95 0zm12.4 14.11c1.51 0 3.01-.02 4.52 0 3.43.06 6.01 1.95 7.04 5.25.6 1.93 1.74 3.25 3.79 3.5 2.08.26 3.29-1.08 4.27-2.66.22-.36.42-.74.56-1.13 1.78-4.85 1.1-9.43-1.67-13.72-.85-1.31-2.05-2.01-3.69-1.88-.93.08-1.89.11-2.82-.01-1.75-.22-3.08.32-4.17 1.71-.97 1.24-2.31 1.89-3.93 1.88-2.63-.01-5.28.11-7.9-.06-1.1-.07-2.54-.45-3.15-1.22-1.73-2.16-3.86-2.59-6.36-2.31-.46.05-.94.05-1.41 0-1.58-.15-2.72.57-3.59 1.8-1.92 2.71-2.7 5.77-2.67 9.04.03 2.55.62 4.96 2.28 6.97 2.14 2.59 5.79 1.96 7.03-1.17.1-.26.18-.53.27-.8 1.05-3.2 3.61-5.12 6.95-5.18 1.55-.03 3.1-.01 4.65-.01zm5.38-33.5v21.89c.86-.71 1.53-1.48 2.37-1.89.89-.43 1.05-.98 1.04-1.86-.03-5.59-.01-11.18-.02-16.77 0-.45-.05-.9-.07-1.38-1.16.01-2.18.01-3.32.01zm-7.1 22.78h3.32v-13.92h-3.32zm-3.71-6.89h-3.39c0 .94-.03 1.81.01 2.69.02.34.07.82.3 1 .97.76 2 1.43 3.08 2.19z"/><path d="m18.92 13.8c1.67-1.67 3.15-3.17 4.4-4.42-.18-.91-.6-1.75-.45-2.48.23-1.11 1.31-1.17 2.29-1.16.94.02 1.88-.03 2.82.03 1.1.07 1.71.7 1.75 1.82.03.89-.01 1.79.01 2.68.03.98-.01 2.06-1.11 2.32-.74.17-1.6-.22-2.82-.43-1.38 1.38-3.13 3.14-4.89 4.89-1.42 1.41-2.16 1.43-3.54.01-.55-.56-.99-1.24-1.57-1.98l-6.75 6.78c-.33.33-.65.68-1.01.99-.83.73-1.72.8-2.5-.01-.77-.81-.69-1.73.07-2.51 1.64-1.68 3.31-3.33 4.98-4.99 1.2-1.2 2.37-2.41 3.6-3.58 1-.96 1.81-.94 2.83-.01.35.31.68.65 1 1 .32.33.6.7.89 1.05zm-1.49 23.63c1.39.21 3.36-.34 3.43 1.78.07 2.28-2.04 1.65-3.4 1.96-.26 1.37.35 3.36-1.86 3.34-2.21-.01-1.54-2.03-1.83-3.37-1.41-.26-3.48.31-3.39-1.97.08-2.04 1.95-1.58 3.36-1.7.39-1.31-.45-3.54 2.03-3.4 2.1.12 1.43 2.04 1.66 3.36zm22.93 3.58c-.97.02-1.81-.78-1.81-1.73s.84-1.8 1.8-1.75c1.04.05 1.62.67 1.73 1.67.1.94-.74 1.79-1.72 1.81zm7.02-3.49c.95 0 1.79.86 1.77 1.79-.02.95-.88 1.76-1.85 1.69-1.04-.07-1.6-.7-1.68-1.7-.08-.94.81-1.78 1.76-1.78zm-1.8-1.97c.02 1.17-.77 2.01-1.76 1.94-1.03-.07-1.64-.64-1.69-1.7-.05-1.02.74-1.82 1.75-1.77 1.04.06 1.61.65 1.7 1.53zm-1.84 9.01c-.99-.06-1.72-.92-1.61-1.93.12-1.07.8-1.57 1.82-1.55 1 .02 1.71.9 1.61 1.91a1.72 1.72 0 0 1 -1.82 1.57z"/></g></svg>