<svg enable-background="new 0 0 59.95 59.89" viewBox="0 0 59.95 59.89" xmlns="http://www.w3.org/2000/svg"><path d="m29.28 45.47c-1.04 0-2.08-.3-3-.93-.97-.66-1.93-1.33-2.9-2l-2.22-1.54c-1.09-.75-2.18-1.51-3.27-2.27h-2.77c-.8 0-1.49-.23-2.06-.7-.77-.63-1.18-1.5-1.18-2.53v-10.43c0-.35.03-.66.1-.94.28-1.23 1.32-2.17 2.58-2.35.24-.03.45-.04.64-.04h2.7l4.72-3.1 3.66-2.4c.9-.59 1.87-.91 2.86-.94 1.42-.03 2.84.52 3.88 1.54 1.02.99 1.58 2.35 1.58 3.81v19.45c0 1.21-.35 2.28-1.03 3.2a5.31 5.31 0 0 1 -4.29 2.17zm-11.2-10.04c.56 0 1.07.16 1.53.48 1.14.8 2.28 1.58 3.42 2.38l2.23 1.55c.96.67 1.91 1.33 2.88 1.99.94.64 2.11.44 2.79-.48.25-.34.37-.73.37-1.22v-19.46c0-.59-.19-1.07-.58-1.45a2.19 2.19 0 0 0 -1.49-.6c-.38.01-.74.14-1.14.4l-3.67 2.4c-1.63 1.07-3.26 2.14-4.89 3.2-.44.29-.92.43-1.44.43h-.01c-.86-.01-1.71 0-2.57 0h-.33v10.39h2.87c.02-.01.02-.01.03-.01zm25.36-2.27c-.11.11-.21.21-.31.3-.92.91-1.85 1.81-2.74 2.75-.65.69-1.68.71-2.3 0-.17-.19-.36-.36-.54-.55-.62-.64-.62-1.49 0-2.12.94-.95 1.88-1.89 2.82-2.83.1-.1.19-.2.31-.32-.11-.12-.21-.22-.31-.32-.94-.94-1.89-1.88-2.83-2.83-.45-.45-.62-1.01-.35-1.58.31-.67.85-1.2 1.52-1.52.53-.25 1.06-.12 1.5.27.17.15.33.32.49.49.82.81 1.63 1.63 2.45 2.44.09.09.18.18.29.28.11-.11.21-.21.31-.3.94-.94 1.88-1.88 2.83-2.82.45-.45 1.01-.62 1.58-.35.67.31 1.2.85 1.52 1.52.25.53.12 1.06-.27 1.5-.19.21-.39.4-.59.6l-2.34 2.34c-.09.09-.17.18-.28.29.11.11.21.22.3.31.91.92 1.81 1.85 2.75 2.74.7.66.71 1.67 0 2.3-.19.17-.36.36-.55.54-.64.62-1.49.62-2.13 0-.96-.94-1.9-1.9-2.86-2.85-.06-.09-.16-.18-.27-.28z" fill="#b2b2b2"/></svg>