<svg enable-background="new 0 0 59.95 59.89" viewBox="0 0 59.95 59.89" xmlns="http://www.w3.org/2000/svg"><g fill="#b2b2b2"><path d="m27.32 46.05c-1.04 0-2.09-.3-3.02-.93-.97-.66-1.94-1.34-2.91-2.01l-2.23-1.55c-1.1-.76-2.19-1.52-3.28-2.28h-2.79c-.8 0-1.5-.24-2.07-.7-.77-.63-1.18-1.51-1.18-2.54v-10.47c0-.35.03-.66.1-.95a3.094 3.094 0 0 1 2.59-2.35c.24-.03.46-.04.64-.04h2.71c1.58-1.04 3.16-2.07 4.74-3.11l3.68-2.41c.91-.6 1.87-.91 2.87-.94 1.42-.03 2.85.52 3.9 1.54 1.02 1 1.58 2.35 1.58 3.83v19.53c0 1.21-.35 2.29-1.03 3.21a5.343 5.343 0 0 1 -4.3 2.17zm-11.24-10.08c.56 0 1.08.16 1.54.48 1.14.8 2.29 1.59 3.43 2.38l2.24 1.55c.96.67 1.92 1.34 2.89 1.99.94.64 2.12.44 2.8-.48.26-.34.37-.73.37-1.23v-19.53c0-.59-.2-1.08-.58-1.45-.4-.39-.99-.61-1.5-.6-.38.01-.74.14-1.14.4l-3.68 2.41c-1.63 1.07-3.27 2.14-4.9 3.22-.44.29-.92.43-1.45.43h-.01c-.86-.01-1.72 0-2.58 0h-.33v10.42h2.89c-.01.01 0 .01.01.01zm31.12-4.8c-.12 4.78-2.14 9.12-6.16 12.51-.13.11-.27.22-.42.3-.71.4-1.58.25-2.17-.36-.6-.61-.71-1.47-.28-2.18.09-.15.23-.28.37-.4 2.48-1.98 4.11-4.51 4.74-7.62.83-4.12-.1-7.84-2.74-11.11a12.31 12.31 0 0 0 -2.08-2c-.64-.5-.84-1.29-.5-2.03.5-1.1 1.85-1.54 2.88-.71 3.02 2.44 5.01 5.53 5.92 9.3.29 1.27.43 2.55.44 4.3z"/><path d="m40.76 30.72c-.1 3.75-1.68 6.69-4.84 8.76-.66.43-1.4.35-1.9-.17-.69-.71-.56-1.79.27-2.32 1.83-1.16 2.98-2.8 3.39-4.94.57-3-.8-6.06-3.44-7.61-.54-.32-.73-1.07-.59-1.54.27-.94 1.36-1.52 2.3-.91 2.6 1.69 4.18 4.06 4.7 7.12.05.3.09.6.11.9.01.23 0 .47 0 .71z"/></g></svg>