<svg enable-background="new 0 0 59.95 59.89" viewBox="0 0 59.95 59.89" xmlns="http://www.w3.org/2000/svg"><g fill="#dadada"><path d="m47.6 32.63c0 4.3.02 8.6 0 12.9-.02 4.53-2.76 7.26-7.29 7.27-7.2.01-14.39.01-21.59 0-4.45-.01-7.22-2.75-7.23-7.21-.02-8.76-.02-17.53 0-26.29.01-4.39 2.77-7.1 7.17-7.15.32 0 .65-.04.96.01.88.14 1.33-.23 1.75-1.02 1.18-2.24 3.14-3.39 5.66-3.49 1.61-.07 3.22-.04 4.82-.01 2.68.06 4.7 1.29 5.93 3.65.36.69.75.89 1.48.88 1.04-.02 2.11-.05 3.12.17 3.16.68 5.17 3.32 5.2 6.78.05 4.51.02 9.01.02 13.51zm-31.67-.17c0 4.34-.01 8.69 0 13.03 0 2 .86 2.86 2.87 2.86 7.16.01 14.31.01 21.47 0 2.01 0 2.87-.86 2.87-2.86.01-8.69.01-17.37 0-26.06 0-1.93-.88-2.8-2.79-2.82-.44 0-.91-.1-1.32.03-.42.13-.95.38-1.14.73-1.18 2.18-2.96 3.53-5.41 3.73-1.96.16-3.94.14-5.9 0-2.16-.16-4-1.2-4.99-3.14-.64-1.25-1.44-1.41-2.64-1.37-2.24.08-3.03.82-3.03 3.08.01 4.26.01 8.52.01 12.79zm13.62-15.82v.01h2.16c.08 0 .16-.01.24-.02 1.25-.14 2.05-.98 2.08-2.2.02-1.24-.71-2.21-1.97-2.28-1.67-.1-3.36-.1-5.03 0-1.26.08-1.99 1.05-1.96 2.29.03 1.22.83 2.09 2.09 2.18.79.07 1.59.02 2.39.02z"/><path d="m27.16 43.77c-.71 0-1.43.04-2.14-.01-1.35-.08-2.2-.97-2.2-2.23 0-1.24.86-2.2 2.19-2.25 1.76-.07 3.53-.04 5.3-.02.82.01 1.5-.2 1.49-1.14-.01-.93-.72-1.15-1.52-1.16-.64-.01-1.29.01-1.93-.01-2.79-.09-5.02-1.96-5.45-4.54-.47-2.83.91-5.26 3.58-6.38.34-.14.74-.47.85-.8.38-1.07 1.02-1.73 2.18-1.74 1.22-.02 1.93.65 2.25 1.79.03.11.09.22.18.45.71 0 1.47-.03 2.22.01 1.29.07 2.16 1.02 2.13 2.29-.03 1.23-.86 2.09-2.14 2.12-1.73.04-3.45.01-5.18.02-.82 0-1.63.15-1.65 1.15-.02 1.1.83 1.18 1.7 1.19.96.01 1.94-.03 2.87.16 2.47.5 4.17 2.49 4.38 4.94.22 2.55-1.14 4.77-3.47 5.78-.41.18-.9.54-1.04.92-.4 1.07-1.06 1.71-2.2 1.71s-1.86-.63-2.17-1.72c-.06-.15-.14-.3-.23-.53z"/></g></svg>