<svg enable-background="new 0 0 69.61 67.86" viewBox="0 0 69.61 67.86" xmlns="http://www.w3.org/2000/svg"><g fill="#f39200"><path d="m57.71-155.16h-12.42v-28.35h11.03c1.92 0 3.58.23 4.97.69s2.44 1.08 3.14 1.87c1.27 1.46 1.91 3.11 1.91 4.95 0 2.22-.72 3.87-2.15 4.95-.49.38-.83.62-1.01.71-.19.09-.53.25-1.01.47 1.76.38 3.16 1.17 4.2 2.37s1.56 2.7 1.56 4.48c0 1.97-.68 3.72-2.03 5.23-1.57 1.75-4.3 2.63-8.19 2.63zm-6.09-16.87h3c1.76 0 3.06-.19 3.91-.57s1.28-1.2 1.28-2.45c0-1.26-.39-2.09-1.18-2.49-.78-.41-2.11-.61-3.98-.61h-3.04v6.12zm0 11.52h4.34c1.81 0 3.17-.22 4.08-.67s1.36-1.33 1.36-2.64-.48-2.18-1.44-2.6-2.49-.63-4.6-.63h-3.73v6.54z"/><path d="m78.72-155.16h-6.08v-30.1h6.08z"/><path d="m103.02-155.16h-5.72v-2.64c-1.57 1.97-3.51 2.96-5.82 2.96s-4.25-.67-5.82-2.01-2.35-3.12-2.35-5.35.81-3.9 2.43-5.01 3.84-1.66 6.65-1.66h4.54v-.12c0-2.33-1.23-3.49-3.69-3.49-1.05 0-2.17.21-3.35.63s-2.17.94-2.98 1.56l-2.72-3.93c2.87-2.08 6.14-3.12 9.82-3.12 2.65 0 4.81.66 6.49 1.99s2.52 3.42 2.52 6.29zm-6.13-8.31v-1.05h-3.81c-2.43 0-3.65.76-3.65 2.27 0 .78.29 1.39.87 1.8.58.42 1.41.63 2.49.63s2.03-.33 2.86-.99c.83-.67 1.24-1.55 1.24-2.66z"/><path d="m119.04-160.23c2.03 0 3.85-1.01 5.48-3.04l3.61 4.06c-2.81 2.92-5.86 4.38-9.13 4.38s-6.04-1.03-8.3-3.1-3.39-4.77-3.39-8.11 1.14-6.06 3.43-8.15c2.29-2.1 5-3.14 8.13-3.14 1.57 0 3.16.33 4.77.97 1.61.65 3.02 1.61 4.24 2.88l-3.16 4.14c-.7-.84-1.56-1.49-2.58-1.95s-2.02-.69-3.02-.69c-1.6 0-2.97.52-4.12 1.56s-1.72 2.49-1.72 4.34.57 3.29 1.72 4.32c1.15 1.02 2.5 1.53 4.04 1.53z"/><path d="m138.27-155.16h-6.08v-30.1h6.08v15.46l6.77-7.22h7.67l-8.32 8.84 8.64 13.02h-7.22l-5.56-8.36-1.99 2.07v6.29z"/><path d="m158.39-154.75v-22.27h6.08v22.76c0 2.38-.72 4.26-2.17 5.64s-3.22 2.07-5.31 2.07c-2.1 0-4.09-.87-5.98-2.6l2.8-4.5c.81.95 1.72 1.42 2.72 1.42.54 0 .99-.21 1.34-.63.34-.42.52-1.05.52-1.89zm.5-25.01c-.69-.69-1.03-1.53-1.03-2.54 0-1 .35-1.85 1.03-2.54.69-.69 1.53-1.04 2.54-1.04 1 0 1.85.34 2.54 1.04.69.69 1.03 1.54 1.03 2.54s-.34 1.85-1.03 2.54-1.53 1.03-2.54 1.03c-1 .01-1.85-.34-2.54-1.03z"/><path d="m188.77-155.16h-5.72v-2.64c-1.57 1.97-3.51 2.96-5.82 2.96s-4.25-.67-5.82-2.01-2.35-3.12-2.35-5.35.81-3.9 2.43-5.01 3.84-1.66 6.65-1.66h4.54v-.12c0-2.33-1.23-3.49-3.69-3.49-1.05 0-2.17.21-3.35.63s-2.17.94-2.98 1.56l-2.72-3.93c2.87-2.08 6.14-3.12 9.82-3.12 2.65 0 4.81.66 6.49 1.99s2.52 3.42 2.52 6.29zm-6.13-8.31v-1.05h-3.81c-2.43 0-3.65.76-3.65 2.27 0 .78.29 1.39.87 1.8.58.42 1.41.63 2.49.63s2.03-.33 2.86-.99c.83-.67 1.24-1.55 1.24-2.66z"/><path d="m204.79-160.23c2.03 0 3.85-1.01 5.48-3.04l3.61 4.06c-2.81 2.92-5.86 4.38-9.13 4.38s-6.04-1.03-8.3-3.1-3.39-4.77-3.39-8.11 1.14-6.06 3.43-8.15c2.29-2.1 5-3.14 8.13-3.14 1.57 0 3.16.33 4.77.97 1.61.65 3.02 1.61 4.24 2.88l-3.16 4.14c-.7-.84-1.56-1.49-2.58-1.95s-2.02-.69-3.02-.69c-1.6 0-2.97.52-4.12 1.56s-1.72 2.49-1.72 4.34.57 3.29 1.72 4.32c1.16 1.02 2.5 1.53 4.04 1.53z"/><path d="m224.02-155.16h-6.08v-30.1h6.08v15.46l6.77-7.22h7.67l-8.32 8.84 8.64 13.02h-7.22l-5.56-8.36-1.99 2.07v6.29z"/><path d="m453.84-152.19h-12.41v-28.35h11.03c1.92 0 3.58.23 4.97.69s2.44 1.08 3.14 1.87c1.27 1.46 1.91 3.11 1.91 4.95 0 2.22-.72 3.87-2.15 4.95-.49.38-.83.62-1.01.71-.19.09-.53.25-1.01.47 1.76.38 3.16 1.17 4.2 2.37s1.56 2.7 1.56 4.48c0 1.97-.68 3.72-2.03 5.23-1.57 1.75-4.31 2.63-8.2 2.63zm-6.08-16.88h3c1.76 0 3.06-.19 3.91-.57s1.28-1.2 1.28-2.45c0-1.26-.39-2.09-1.18-2.49-.78-.41-2.11-.61-3.98-.61h-3.04v6.12zm0 11.52h4.34c1.81 0 3.17-.22 4.08-.67s1.36-1.33 1.36-2.64-.48-2.18-1.44-2.6-2.49-.63-4.6-.63h-3.73v6.54z"/><path d="m487.31-152.19h-5.72v-2.64c-1.57 1.97-3.51 2.96-5.82 2.96s-4.25-.67-5.82-2.01-2.35-3.12-2.35-5.35.81-3.9 2.43-5.01 3.84-1.66 6.65-1.66h4.54v-.12c0-2.33-1.23-3.49-3.69-3.49-1.05 0-2.17.21-3.35.63s-2.17.94-2.98 1.56l-2.72-3.93c2.87-2.08 6.14-3.12 9.82-3.12 2.65 0 4.81.66 6.49 1.99s2.52 3.42 2.52 6.29zm-6.13-8.32v-1.05h-3.81c-2.43 0-3.65.76-3.65 2.27 0 .78.29 1.39.87 1.8.58.42 1.41.63 2.49.63s2.03-.33 2.86-.99c.83-.67 1.24-1.55 1.24-2.66z"/><path d="m503.33-157.26c2.03 0 3.85-1.01 5.48-3.04l3.61 4.06c-2.81 2.92-5.86 4.38-9.13 4.38s-6.04-1.03-8.3-3.1-3.39-4.77-3.39-8.11 1.14-6.06 3.43-8.15c2.29-2.1 5-3.14 8.13-3.14 1.57 0 3.16.33 4.77.97 1.61.65 3.02 1.61 4.24 2.88l-3.16 4.14c-.7-.84-1.56-1.49-2.58-1.95s-2.02-.69-3.02-.69c-1.6 0-2.97.52-4.12 1.56s-1.72 2.49-1.72 4.34.57 3.29 1.72 4.32c1.15 1.01 2.5 1.53 4.04 1.53z"/><path d="m526.94-157.26c2.03 0 3.85-1.01 5.48-3.04l3.61 4.06c-2.81 2.92-5.86 4.38-9.13 4.38s-6.04-1.03-8.3-3.1-3.39-4.77-3.39-8.11 1.14-6.06 3.43-8.15c2.29-2.1 5-3.14 8.13-3.14 1.57 0 3.16.33 4.77.97 1.61.65 3.02 1.61 4.24 2.88l-3.16 4.14c-.7-.84-1.56-1.49-2.58-1.95s-2.02-.69-3.02-.69c-1.6 0-2.97.52-4.12 1.56s-1.72 2.49-1.72 4.34.57 3.29 1.72 4.32c1.15 1.01 2.49 1.53 4.04 1.53z"/><path d="m558.62-152.19h-5.72v-2.64c-1.57 1.97-3.51 2.96-5.82 2.96s-4.25-.67-5.82-2.01-2.35-3.12-2.35-5.35.81-3.9 2.43-5.01 3.84-1.66 6.65-1.66h4.54v-.12c0-2.33-1.23-3.49-3.69-3.49-1.05 0-2.17.21-3.35.63s-2.17.94-2.98 1.56l-2.72-3.93c2.87-2.08 6.14-3.12 9.82-3.12 2.65 0 4.81.66 6.49 1.99s2.52 3.42 2.52 6.29zm-6.13-8.32v-1.05h-3.81c-2.43 0-3.65.76-3.65 2.27 0 .78.29 1.39.87 1.8.58.42 1.41.63 2.49.63s2.03-.33 2.86-.99c.83-.67 1.24-1.55 1.24-2.66z"/><path d="m575.65-168.66c-1.81 0-3.16.64-4.06 1.93-.89 1.29-1.34 2.98-1.34 5.09v9.45h-6.08v-21.82h6.08v2.88c.78-.89 1.76-1.65 2.94-2.27s2.37-.95 3.59-.97l.04 5.72h-1.17z"/><path d="m599.18-152.19h-5.72v-2.64c-1.57 1.97-3.51 2.96-5.82 2.96s-4.25-.67-5.82-2.01-2.35-3.12-2.35-5.35.81-3.9 2.43-5.01 3.84-1.66 6.65-1.66h4.54v-.12c0-2.33-1.23-3.49-3.69-3.49-1.05 0-2.17.21-3.35.63s-2.17.94-2.98 1.56l-2.72-3.93c2.87-2.08 6.14-3.12 9.82-3.12 2.65 0 4.81.66 6.49 1.99s2.52 3.42 2.52 6.29zm-6.12-8.32v-1.05h-3.81c-2.43 0-3.65.76-3.65 2.27 0 .78.29 1.39.87 1.8.58.42 1.41.63 2.49.63s2.03-.33 2.86-.99c.82-.67 1.24-1.55 1.24-2.66z"/><path d="m611.76-169.64v9.78c0 .84.22 1.5.65 1.97s.95.71 1.54.71c1.14 0 2.1-.51 2.88-1.54l2.27 4.26c-1.89 1.73-3.89 2.6-5.98 2.6s-3.87-.69-5.31-2.07c-1.45-1.38-2.17-3.26-2.17-5.64v-10.06h-2.56v-4.38h2.56v-6.53h6.12v6.53h5.27v4.38h-5.27z"/><path d="m844.96-170.27c0 4.54-1.8 7.48-5.4 8.8l7.18 10.14h-7.79l-6.29-9.05h-4.38v9.05h-6.33v-28.35h10.75c4.41 0 7.55.74 9.43 2.23 1.89 1.49 2.83 3.88 2.83 7.18zm-7.63 3.37c.78-.7 1.18-1.82 1.18-3.35s-.41-2.58-1.22-3.14c-.81-.57-2.23-.85-4.26-.85h-4.75v8.4h4.62c2.17 0 3.65-.36 4.43-1.06z"/><path d="m871.85-162.23c0 3.16-1.1 5.83-3.29 7.99s-4.94 3.25-8.26 3.25c-3.31 0-6.06-1.08-8.25-3.25-2.19-2.16-3.29-4.83-3.29-7.99s1.1-5.83 3.29-8.01 4.94-3.27 8.25-3.27 6.06 1.09 8.26 3.27c2.2 2.17 3.29 4.84 3.29 8.01zm-16.95 0c0 1.79.51 3.24 1.52 4.36s2.31 1.68 3.89 1.68 2.88-.56 3.89-1.68 1.52-2.58 1.52-4.36-.51-3.25-1.52-4.38-2.31-1.7-3.89-1.7-2.88.57-3.89 1.7-1.52 2.59-1.52 4.38z"/><path d="m890.43-161.38v-11.76h6.13v21.82h-6.13v-2.88c-1.51 2.14-3.47 3.2-5.86 3.2s-4.4-.75-6.02-2.25-2.43-3.72-2.43-6.67v-13.22h6.13v11.89c0 3.35 1.23 5.03 3.69 5.03 1.22 0 2.27-.44 3.16-1.32.89-.89 1.33-2.17 1.33-3.84z"/><path d="m908.4-151.32h-6.08v-30.1h6.08z"/><path d="m933.07-154.49c-2.46 2.33-5.35 3.49-8.66 3.49s-6.05-1.02-8.21-3.06-3.25-4.78-3.25-8.21 1.1-6.17 3.31-8.19 4.81-3.04 7.81-3.04 5.55.91 7.65 2.72 3.14 4.3 3.14 7.46v3.25h-15.9c.19 1.19.81 2.16 1.87 2.92 1.05.76 2.25 1.14 3.57 1.14 2.14 0 3.89-.72 5.27-2.15zm-5.85-12.94c-.84-.7-1.86-1.05-3.06-1.05s-2.31.37-3.31 1.1-1.58 1.72-1.74 2.96h9.57c-.13-1.3-.62-2.3-1.46-3.01z"/><path d="m946.25-168.77v9.78c0 .84.22 1.5.65 1.97s.95.71 1.54.71c1.14 0 2.1-.51 2.88-1.54l2.27 4.26c-1.89 1.73-3.89 2.6-5.98 2.6s-3.87-.69-5.31-2.07c-1.45-1.38-2.17-3.26-2.17-5.64v-10.06h-2.56v-4.38h2.56v-6.53h6.12v6.53h5.27v4.38h-5.27z"/><path d="m964.1-168.77v9.78c0 .84.22 1.5.65 1.97s.95.71 1.54.71c1.14 0 2.1-.51 2.88-1.54l2.27 4.26c-1.89 1.73-3.89 2.6-5.98 2.6s-3.87-.69-5.31-2.07-2.17-3.26-2.17-5.64v-10.06h-2.56v-4.38h2.56v-6.53h6.12v6.53h5.27v4.38h-5.27z"/><path d="m993.59-154.49c-2.46 2.33-5.35 3.49-8.66 3.49s-6.05-1.02-8.21-3.06-3.25-4.78-3.25-8.21 1.1-6.17 3.31-8.19c2.2-2.03 4.81-3.04 7.81-3.04s5.55.91 7.65 2.72 3.14 4.3 3.14 7.46v3.25h-15.9c.19 1.19.81 2.16 1.87 2.92 1.05.76 2.24 1.14 3.57 1.14 2.14 0 3.89-.72 5.27-2.15zm-5.84-12.94c-.84-.7-1.86-1.05-3.06-1.05s-2.31.37-3.31 1.1-1.58 1.72-1.74 2.96h9.57c-.14-1.3-.63-2.3-1.46-3.01z"/><path d="m1246.08-173.71c-.61.5-.91 1.16-.91 1.99s.37 1.48 1.12 1.97c.74.49 2.46 1.06 5.15 1.72s4.78 1.66 6.27 2.98 2.23 3.26 2.23 5.8-.95 4.6-2.86 6.19-4.42 2.37-7.52 2.37c-4.49 0-8.53-1.66-12.13-4.99l3.77-4.62c3.06 2.68 5.88 4.02 8.48 4.02 1.16 0 2.08-.25 2.74-.75s.99-1.18.99-2.03-.35-1.53-1.05-2.03-2.1-1.01-4.18-1.52c-3.3-.78-5.71-1.8-7.24-3.06s-2.29-3.23-2.29-5.92.97-4.77 2.9-6.23 4.35-2.19 7.24-2.19c1.89 0 3.79.32 5.68.97s3.54 1.57 4.95 2.76l-3.2 4.62c-2.46-1.87-5-2.8-7.63-2.8-1.07 0-1.9.25-2.51.75z"/><path d="m1265.23-175.62c-.69-.69-1.04-1.53-1.04-2.54 0-1 .35-1.85 1.04-2.54s1.53-1.04 2.54-1.04c1 0 1.85.34 2.54 1.04.69.69 1.03 1.54 1.03 2.54s-.34 1.85-1.03 2.54-1.54 1.03-2.54 1.03c-1.01 0-1.86-.34-2.54-1.03zm5.57 24.6h-6.08v-21.82h6.08z"/><path d="m1287.03-156.09c2.03 0 3.85-1.01 5.48-3.04l3.61 4.06c-2.81 2.92-5.86 4.38-9.13 4.38s-6.04-1.03-8.3-3.1-3.39-4.77-3.39-8.11 1.14-6.06 3.43-8.15c2.29-2.1 5-3.14 8.13-3.14 1.57 0 3.16.33 4.77.97 1.61.65 3.02 1.61 4.24 2.88l-3.16 4.14c-.7-.84-1.56-1.49-2.58-1.95-1.01-.46-2.02-.69-3.02-.69-1.6 0-2.97.52-4.12 1.56s-1.72 2.49-1.72 4.34.57 3.29 1.72 4.32c1.15 1.02 2.5 1.53 4.04 1.53z"/><path d="m1312.75-173.21c2.65 0 4.96 1.04 6.94 3.1 1.97 2.07 2.96 4.73 2.96 7.97 0 3.25-1.01 5.96-3.04 8.15s-4.33 3.29-6.92 3.29c-2.58 0-4.73-1.07-6.43-3.2v2.88h-6.08v-30.1h6.08v10.71c1.67-1.86 3.84-2.8 6.49-2.8zm-6.58 11.3c0 1.77.49 3.22 1.48 4.34s2.18 1.68 3.59 1.68 2.64-.56 3.69-1.68 1.58-2.56 1.58-4.32-.51-3.23-1.54-4.42-2.26-1.79-3.69-1.79-2.64.59-3.63 1.76c-.98 1.19-1.48 2.66-1.48 4.43z"/><path d="m1349.01-161.93c0 3.16-1.1 5.83-3.29 7.99s-4.94 3.25-8.25 3.25-6.06-1.08-8.25-3.25c-2.19-2.16-3.29-4.83-3.29-7.99s1.1-5.83 3.29-8.01 4.94-3.27 8.25-3.27 6.06 1.09 8.25 3.27 3.29 4.85 3.29 8.01zm-16.96 0c0 1.79.51 3.24 1.52 4.36s2.31 1.68 3.89 1.68 2.88-.56 3.89-1.68 1.52-2.58 1.52-4.36-.51-3.25-1.52-4.38c-1.01-1.14-2.31-1.7-3.89-1.7s-2.88.57-3.89 1.7c-1.01 1.14-1.52 2.6-1.52 4.38z"/><path d="m1577.3-165.78h6.21v9.8c-2.74 3.06-6.54 4.58-11.38 4.58-4.06 0-7.46-1.34-10.22-4.03-2.75-2.69-4.13-6.08-4.13-10.18s1.4-7.52 4.21-10.26 6.19-4.11 10.16-4.11c3.96 0 7.41 1.3 10.33 3.91l-3.2 4.62c-1.24-1.08-2.38-1.82-3.42-2.23s-2.17-.61-3.38-.61c-2.35 0-4.32.8-5.93 2.39s-2.41 3.7-2.41 6.3.77 4.7 2.31 6.26c1.54 1.57 3.38 2.35 5.51 2.35s3.91-.41 5.34-1.23z"/><path d="m1606.47-151.7h-5.57v-2.57c-1.53 1.92-3.42 2.89-5.67 2.89s-4.14-.65-5.67-1.96c-1.53-1.3-2.29-3.04-2.29-5.22s.79-3.8 2.37-4.88 3.74-1.62 6.48-1.62h4.43v-.12c0-2.27-1.2-3.4-3.6-3.4-1.03 0-2.12.2-3.26.61-1.15.41-2.12.92-2.91 1.52l-2.65-3.83c2.79-2.03 5.98-3.04 9.57-3.04 2.58 0 4.69.65 6.32 1.94s2.45 3.33 2.45 6.13zm-5.97-8.11v-1.03h-3.71c-2.37 0-3.56.74-3.56 2.21 0 .76.28 1.35.85 1.76s1.38.61 2.43.61 1.98-.32 2.79-.97c.8-.63 1.2-1.5 1.2-2.58z"/><path d="m1631.41-163.17v11.46h-5.97v-11.62c0-1.69-.26-2.92-.77-3.72-.51-.79-1.34-1.19-2.49-1.19s-2.16.43-3.04 1.29-1.32 2.11-1.32 3.77v11.46h-5.93v-21.26h5.93v2.41c1.63-1.84 3.5-2.77 5.61-2.77 1.34 0 2.56.4 3.66 1.19 1.09.79 1.92 1.75 2.47 2.89.82-1.29 1.92-2.29 3.3-3s2.77-1.07 4.17-1.07c2.5 0 4.52.75 6.05 2.23 1.53 1.49 2.29 3.64 2.29 6.46v12.92h-5.97v-11.62c0-3.27-1.2-4.9-3.6-4.9-1.19 0-2.21.43-3.08 1.29-.87.87-1.31 2.12-1.31 3.78z"/><path d="m1669.16-154.79c-2.4 2.27-5.21 3.4-8.44 3.4s-5.9-.99-8-2.98c-2.11-1.99-3.16-4.66-3.16-8 0-3.35 1.07-6.01 3.22-7.98 2.15-1.98 4.68-2.96 7.61-2.96s5.41.88 7.45 2.65 3.06 4.19 3.06 7.27v3.16h-15.49c.18 1.16.79 2.11 1.82 2.85s2.19 1.11 3.48 1.11c2.08 0 3.79-.7 5.14-2.09zm-5.69-12.61c-.82-.68-1.81-1.03-2.98-1.03s-2.25.36-3.22 1.07-1.54 1.67-1.7 2.88h9.33c-.14-1.26-.62-2.23-1.43-2.92z"/><path d="m1692.65-173.82c-.59.49-.89 1.13-.89 1.94 0 .8.36 1.44 1.09 1.92.72.47 2.4 1.04 5.02 1.68 2.62.65 4.66 1.61 6.11 2.91 1.45 1.29 2.17 3.18 2.17 5.65s-.93 4.49-2.79 6.03-4.3 2.31-7.33 2.31c-4.38 0-8.31-1.62-11.82-4.86l3.68-4.51c2.98 2.61 5.73 3.91 8.26 3.91 1.13 0 2.02-.24 2.67-.73s.97-1.15.97-1.98-.34-1.49-1.03-1.98-2.04-.98-4.07-1.48c-3.21-.76-5.57-1.76-7.05-2.98-1.49-1.23-2.23-3.15-2.23-5.77s.94-4.64 2.83-6.07 4.24-2.13 7.06-2.13c1.84 0 3.69.32 5.53.95s3.45 1.53 4.82 2.69l-3.12 4.51c-2.4-1.82-4.88-2.73-7.43-2.73-1.04-.01-1.85.23-2.45.72z"/><path d="m1716.74-163.17v11.46h-5.93v-29.33h5.93v10.43c1.79-1.82 3.8-2.73 6.03-2.73s4.1.79 5.63 2.37 2.29 3.69 2.29 6.32v12.92h-5.93v-11.62c0-3.27-1.2-4.9-3.6-4.9-1.19 0-2.22.43-3.1 1.29s-1.32 2.13-1.32 3.79z"/><path d="m1757.34-162.34c0 3.08-1.07 5.68-3.2 7.79s-4.82 3.16-8.04 3.16c-3.23 0-5.91-1.05-8.04-3.16s-3.2-4.7-3.2-7.79 1.07-5.69 3.2-7.81 4.82-3.18 8.04-3.18c3.23 0 5.91 1.06 8.04 3.18 2.13 2.13 3.2 4.73 3.2 7.81zm-16.53 0c0 1.74.49 3.16 1.48 4.25s2.25 1.64 3.79 1.64 2.81-.55 3.79-1.64 1.48-2.51 1.48-4.25-.49-3.16-1.48-4.27-2.25-1.66-3.79-1.66-2.81.55-3.79 1.66-1.48 2.53-1.48 4.27z"/><path d="m1772.39-151.7h-6.13l-7.23-21.26h6.13l4.15 12.85 4.15-12.85h5.73l4.15 12.85 4.15-12.85h6.17l-7.23 21.26h-6.17l-3.91-11.58z"/><path d="m2021.96-155.24c-2.87 2.8-6.4 4.2-10.59 4.2s-7.72-1.4-10.59-4.2-4.3-6.28-4.3-10.45c0-4.16 1.43-7.65 4.3-10.45s6.4-4.2 10.59-4.2 7.72 1.4 10.59 4.2 4.3 6.28 4.3 10.45-1.44 7.65-4.3 10.45zm-2.15-10.42c0-2.53-.81-4.69-2.43-6.47-1.62-1.79-3.62-2.68-5.98-2.68s-4.36.89-5.98 2.68c-1.62 1.78-2.43 3.94-2.43 6.47s.81 4.68 2.43 6.45 3.62 2.66 5.98 2.66 4.36-.89 5.98-2.66 2.43-3.92 2.43-6.45z"/><path d="m2038.02-168.77v9.78c0 .84.22 1.5.65 1.97s.95.71 1.54.71c1.14 0 2.09-.51 2.88-1.54l2.27 4.26c-1.89 1.73-3.89 2.6-5.98 2.6s-3.87-.69-5.31-2.07c-1.45-1.38-2.17-3.26-2.17-5.64v-10.06h-2.56v-4.38h2.56v-6.53h6.13v6.53h5.27v4.38h-5.28z"/><path d="m2054.69-163.09v11.76h-6.08v-30.1h6.08v10.71c1.84-1.87 3.9-2.8 6.19-2.8 2.28 0 4.21.81 5.78 2.43s2.35 3.79 2.35 6.49v13.26h-6.08v-11.93c0-3.35-1.23-5.03-3.69-5.03-1.22 0-2.28.44-3.18 1.32-.91.9-1.37 2.19-1.37 3.89z"/><path d="m2093.43-154.49c-2.46 2.33-5.35 3.49-8.66 3.49s-6.05-1.02-8.21-3.06-3.25-4.78-3.25-8.21 1.1-6.17 3.31-8.19 4.81-3.04 7.81-3.04 5.55.91 7.65 2.72c2.09 1.81 3.14 4.3 3.14 7.46v3.25h-15.9c.19 1.19.81 2.16 1.87 2.92 1.05.76 2.24 1.14 3.57 1.14 2.14 0 3.89-.72 5.27-2.15zm-5.84-12.94c-.84-.7-1.86-1.05-3.06-1.05s-2.31.37-3.31 1.1-1.58 1.72-1.74 2.96h9.57c-.14-1.3-.62-2.3-1.46-3.01z"/><path d="m2111.08-167.79c-1.81 0-3.16.64-4.06 1.93-.89 1.29-1.34 2.98-1.34 5.09v9.45h-6.08v-21.82h6.08v2.88c.78-.89 1.76-1.65 2.94-2.27s2.37-.95 3.59-.97l.04 5.72h-1.17z"/><path d="m2132.54-158.12c0 2.15-.79 3.87-2.37 5.17s-3.59 1.95-6.02 1.95c-1.62 0-3.31-.29-5.07-.87s-3.34-1.44-4.75-2.58l2.68-3.81c2.27 1.76 4.69 2.64 7.26 2.64.78 0 1.41-.16 1.87-.47s.69-.72.69-1.24c0-.51-.32-.99-.95-1.42-.64-.43-1.56-.84-2.76-1.22s-2.12-.7-2.76-.97-1.36-.66-2.17-1.18c-1.65-1.03-2.47-2.55-2.47-4.56s.81-3.66 2.43-4.93 3.72-1.91 6.29-1.91 5.14.87 7.71 2.6l-2.27 4.06c-1.89-1.3-3.78-1.95-5.66-1.95s-2.82.51-2.82 1.54c0 .57.3 1.01.89 1.34s1.58.7 2.96 1.14c1.38.43 2.36.76 2.94.99s1.28.59 2.09 1.08c1.5.92 2.26 2.45 2.26 4.6z"/><path d="m-151.12-114.67h-259.82c-27.67 0-50.31-22.64-50.31-50.31v-4.04c0-27.67 22.64-50.31 50.31-50.31h259.82c27.67 0 50.31 22.64 50.31 50.31v4.04c-.01 27.67-22.64 50.31-50.31 50.31z"/></g><path d="m-326.33-151.32-2.64-6.12h-11.89l-2.64 6.12h-6.73l12.25-28.35h6.12l12.25 28.35zm-8.56-19.92-3.57 8.23h7.1z" fill="#26272b"/><path d="m-310.83-151.32h-6.08v-30.1h6.08z" fill="#26272b"/><path d="m-298.99-151.32h-6.08v-30.1h6.08z" fill="#26272b"/><path d="m-263.5-165.76h6.37v10.06c-2.81 3.14-6.71 4.71-11.68 4.71-4.16 0-7.66-1.38-10.49-4.14s-4.24-6.24-4.24-10.45 1.44-7.71 4.32-10.53c2.88-2.81 6.35-4.22 10.43-4.22 4.07 0 7.61 1.34 10.61 4.02l-3.29 4.75c-1.27-1.11-2.44-1.87-3.51-2.29s-2.22-.63-3.47-.63c-2.41 0-4.44.82-6.08 2.45-1.65 1.64-2.47 3.79-2.47 6.47s.79 4.82 2.37 6.43 3.47 2.41 5.66 2.41 4.02-.42 5.48-1.26v-7.78z" fill="#26272b"/><path d="m-233.56-151.32h-5.72v-2.64c-1.57 1.97-3.51 2.96-5.82 2.96s-4.25-.67-5.82-2.01-2.35-3.12-2.35-5.35.81-3.9 2.43-5.01 3.84-1.66 6.65-1.66h4.54v-.12c0-2.33-1.23-3.49-3.69-3.49-1.05 0-2.17.21-3.35.63s-2.17.94-2.98 1.56l-2.72-3.93c2.87-2.08 6.14-3.12 9.82-3.12 2.65 0 4.81.66 6.49 1.99s2.52 3.42 2.52 6.29zm-6.12-8.32v-1.05h-3.81c-2.43 0-3.65.76-3.65 2.27 0 .78.29 1.39.87 1.8.58.42 1.41.63 2.49.63s2.03-.33 2.86-.99c.82-.66 1.24-1.55 1.24-2.66z" fill="#26272b"/><path d="m-207.96-163.09v11.76h-6.12v-11.93c0-1.73-.26-3-.79-3.81s-1.38-1.22-2.56-1.22-2.22.44-3.12 1.32c-.91.88-1.36 2.17-1.36 3.87v11.76h-6.09v-21.82h6.08v2.47c1.68-1.89 3.6-2.84 5.76-2.84 1.38 0 2.63.41 3.75 1.22s1.97 1.8 2.54 2.96c.84-1.33 1.97-2.35 3.39-3.08s2.85-1.1 4.28-1.1c2.57 0 4.64.76 6.21 2.29s2.35 3.74 2.35 6.63v13.26h-6.13v-11.93c0-3.35-1.23-5.03-3.69-5.03-1.22 0-2.27.44-3.16 1.32s-1.34 2.2-1.34 3.9z" fill="#26272b"/><path d="m-169.22-154.49c-2.46 2.33-5.35 3.49-8.66 3.49s-6.05-1.02-8.21-3.06-3.25-4.78-3.25-8.21 1.1-6.17 3.31-8.19c2.2-2.03 4.81-3.04 7.81-3.04s5.55.91 7.65 2.72 3.14 4.3 3.14 7.46v3.25h-15.9c.19 1.19.81 2.16 1.87 2.92 1.05.76 2.24 1.14 3.57 1.14 2.14 0 3.89-.72 5.27-2.15zm-5.84-12.94c-.84-.7-1.86-1.05-3.06-1.05s-2.31.37-3.31 1.1-1.58 1.72-1.74 2.96h9.57c-.14-1.3-.63-2.3-1.46-3.01z" fill="#26272b"/><path d="m-146.63-158.12c0 2.15-.79 3.87-2.37 5.17s-3.59 1.95-6.02 1.95c-1.62 0-3.31-.29-5.07-.87s-3.34-1.44-4.75-2.58l2.68-3.81c2.27 1.76 4.69 2.64 7.26 2.64.78 0 1.41-.16 1.87-.47s.69-.72.69-1.24c0-.51-.32-.99-.95-1.42-.64-.43-1.56-.84-2.76-1.22s-2.12-.7-2.76-.97-1.36-.66-2.17-1.18c-1.65-1.03-2.47-2.55-2.47-4.56s.81-3.66 2.43-4.93 3.72-1.91 6.29-1.91 5.14.87 7.71 2.6l-2.27 4.06c-1.89-1.3-3.78-1.95-5.66-1.95s-2.82.51-2.82 1.54c0 .57.3 1.01.89 1.34.59.32 1.58.7 2.96 1.14 1.38.43 2.36.76 2.94.99s1.28.59 2.09 1.08c1.5.92 2.26 2.45 2.26 4.6z" fill="#26272b"/><path d="m233.08-114.67h-259.82c-27.67 0-50.31-22.64-50.31-50.31v-4.04c0-27.67 22.64-50.31 50.31-50.31h259.82c27.67 0 50.31 22.64 50.31 50.31v4.04c0 27.67-22.64 50.31-50.31 50.31z" fill="none" stroke="#f39200" stroke-miterlimit="10" stroke-width="2"/><path d="m617.29-114.67h-259.82c-27.67 0-50.31-22.64-50.31-50.31v-4.04c0-27.67 22.64-50.31 50.31-50.31h259.82c27.67 0 50.31 22.64 50.31 50.31v4.04c-.01 27.67-22.64 50.31-50.31 50.31z" fill="none" stroke="#f39200" stroke-miterlimit="10" stroke-width="2"/><path d="m1001.49-114.67h-259.82c-27.67 0-50.31-22.64-50.31-50.31v-4.04c0-27.67 22.64-50.31 50.31-50.31h259.82c27.67 0 50.31 22.64 50.31 50.31v4.04c0 27.67-22.64 50.31-50.31 50.31z" fill="none" stroke="#f39200" stroke-miterlimit="10" stroke-width="2"/><path d="m1385.7-114.67h-259.82c-27.67 0-50.31-22.64-50.31-50.31v-4.04c0-27.67 22.64-50.31 50.31-50.31h259.82c27.67 0 50.31 22.64 50.31 50.31v4.04c0 27.67-22.64 50.31-50.31 50.31z" fill="none" stroke="#f39200" stroke-miterlimit="10" stroke-width="2"/><path d="m1769.9-114.67h-259.82c-27.67 0-50.31-22.64-50.31-50.31v-4.04c0-27.67 22.64-50.31 50.31-50.31h259.82c27.67 0 50.31 22.64 50.31 50.31v4.04c0 27.67-22.64 50.31-50.31 50.31z" fill="none" stroke="#f39200" stroke-miterlimit="10" stroke-width="2"/><path d="m2154.11-114.67h-259.82c-27.67 0-50.31-22.64-50.31-50.31v-4.04c0-27.67 22.64-50.31 50.31-50.31h259.82c27.67 0 50.31 22.64 50.31 50.31v4.04c0 27.67-22.64 50.31-50.31 50.31z" fill="none" stroke="#f39200" stroke-miterlimit="10" stroke-width="2"/><path d="m22.61 28.93c1.09-6.78 2.17-13.56 3.28-20.34.18-1.13.42-2.25.69-3.37.26-1.1 1.42-1.9 2.55-1.76 1.36.16 2.72.35 4.07.57 9.08 1.45 18.16 2.91 27.24 4.38.92.15 1.84.35 2.74.58 1.22.31 1.89 1.26 1.76 2.52-.14 1.38-.3 2.75-.52 4.12-2.27 14.12-4.56 28.24-6.85 42.37-.2 1.25-1.18 2.2-2.44 2.39-.11.02-.22-.01-.33-.03-11.31-1.82-22.62-3.63-33.92-5.47-.32-.05-.63-.28-.89-.5-.77-.66-1.2-1.45-1.03-2.53.84-5.31 1.65-10.62 2.48-15.92.37-2.34.75-4.68 1.13-7.01zm21.39-8.99c-.07 0-.14-.01-.22-.01-.16.16-.31.34-.49.46-1.68 1.2-3.37 2.4-5.06 3.59-1.2.85-2.47 1.61-3.61 2.53-2.09 1.7-3 3.96-2.77 6.65.15 1.73.92 3.15 2.54 3.86 1.6.7 3.28.82 4.93.03.2-.09.4-.17.71-.31-.83 2.06-1.91 3.86-3.03 5.65 2.15.35 4.24.68 6.38 1.03-.59-2.08-.98-4.15-1.15-6.27.07.01.1.01.11.02.09.08.19.16.28.25 1.1 1.19 2.52 1.63 4.09 1.75 1.24.1 2.3-.3 3.17-1.14 1.63-1.56 2.07-3.57 1.88-5.72-.14-1.55-.83-2.91-1.76-4.15-1.87-2.49-3.74-4.98-5.61-7.47-.15-.22-.25-.49-.39-.75zm-13.33-4.2c.05-.02.06-.03.07-.02.05.01.1.03.14.05.39.19.82.27 1.16-.03.38-.34.48-.86.27-1.27-.37-.73-.86-1.41-1.25-2.04-.53.35-.99.63-1.42.95-.26.19-.49.42-.7.67-.29.34-.31.73-.11 1.12.19.38.53.5.94.48.11-.01.23.01.41.02-.17.33-.31.6-.45.86.37.06.71.11 1.09.17-.07-.37-.11-.67-.15-.96zm22.62 32.36c-.14-.07-.2-.1-.25-.13-.86-.41-1.51.02-1.45.97.01.19.05.41.15.57.39.63.81 1.25 1.25 1.91.63-.5 1.21-.95 1.77-1.42.15-.12.27-.29.38-.46.21-.34.16-.7-.04-1.03-.18-.31-.47-.43-.83-.41-.13.01-.26 0-.48-.01.17-.33.31-.59.45-.86-.37-.06-.71-.11-1.08-.17.04.37.08.67.13 1.04zm-20.32-36.46c-.17-.57-.34-1.09-.47-1.62-.17-.68-.3-1.36-.48-2.04-.04-.15-.18-.28-.27-.42-.13.1-.31.17-.39.3-.27.39-.49.81-.76 1.2-.41.61-.85 1.21-1.27 1.83-.03.05-.05.15-.02.19.12.2.89.23 1.09.04-.07-.09-.15-.19-.22-.28.29-.69.29-.69.97-.54.19.04.39.11.58.14.36.06.44.31.41.6-.01.14-.15.26-.23.39.26.25.77.33 1.06.21zm21.19 40.89s.01 0 0 0c-.06-.02-.12-.04-.18-.03-.13.01-.26.03-.39.05.05.1.09.21.14.31.08.18-.26.73-.46.7-.4-.07-.81-.16-1.2-.28-.26-.08-.37-.52-.22-.72.24-.32.23-.35-.18-.43-.18-.04-.37-.07-.55-.07-.17 0-.26.07-.16.26.14.27.3.54.37.82.2.83.35 1.68.55 2.52.05.2.21.37.32.55.15-.13.35-.24.45-.4.5-.77.97-1.56 1.46-2.34.12-.19.28-.35.41-.52.05-.06.1-.13.15-.19-.07-.06-.14-.13-.23-.16-.07-.05-.18-.05-.28-.07z" fill="#f39200"/><path d="m24.03 7.38c-.04.4-.06.77-.11 1.12-.79 4.93-1.58 9.87-2.37 14.8-.06.37-.15.74-.27 1.09-.05.13-.22.3-.34.31-1.95.17-3.44 1-4.16 2.89-.87 2.27-.54 4.45.8 6.44.45.67 1.07 1.24 1.64 1.82.21.21.28.39.23.68-.81 5.1-1.59 10.2-2.41 15.29-.11.66-.05 1.28.24 1.85.3.61.65 1.2 1.06 1.75.49.65 1.17 1.07 2 1.22 3.07.55 6.13 1.09 9.2 1.64.71.13 1.42.24 2.14.37.1.02.21.05.31.15-.55.08-1.09.16-1.64.24-5.08.73-10.16 1.45-15.23 2.18-.32.05-.64.06-.97.1-1.48.19-2.8-1.03-3-2.42-.42-2.95-.88-5.89-1.31-8.83-1.62-11-3.24-21.97-4.82-32.95-.23-1.6-.37-3.22-.49-4.83-.07-.92.59-1.86 1.48-2.1 1.06-.28 2.13-.5 3.22-.66 4.79-.72 9.58-1.41 14.38-2.11.11-.02.24-.03.42-.04zm-13.05 13.96c.28-.36.54-.65.75-.97.25-.38.5-.77.68-1.19.21-.47-.01-1.03-.42-1.27-.38-.23-.79-.14-1.18.25-.09.08-.17.17-.26.26-.11-.08-.19-.16-.29-.21-.53-.31-1.35.04-1.43.61-.06.47.03.9.42 1.21.56.42 1.13.85 1.73 1.31zm-1.47-4.39c-.03-.01-.07-.02-.1-.03-.02-.22-.1-.47-.03-.65.06-.15.3-.25.49-.31.22-.07.46-.08.7-.12s.44-.08.59.21c.13.26.16.44-.1.61.45.25.91.19 1.15-.09-.19-.25-.4-.48-.56-.74-.51-.84-1-1.7-1.5-2.54-.19-.32-.39-.3-.56.02-.07.13-.1.28-.15.42-.34 1.12-.37 2.33-.94 3.38.39.18.72.12 1.01-.16z" fill="#f39200"/><path d="m31.66 8.31c.08.47.17.93.22 1.41.01.08-.18.25-.26.25-.25-.02-.5-.1-.75-.16.07-.21.12-.44.21-.64.14-.29.32-.57.48-.86z" fill="#f39200"/><path d="m53.23 53.91c-.33.6-.6 1.08-.93 1.66-.1-.57-.18-1.01-.25-1.46-.04-.25.07-.38.34-.34.25.04.5.08.84.14z" fill="#f39200"/><path d="m10.73 15.31c-.41.08-.76.15-1.13.22.09-.58.18-1.1.26-1.63.04-.01.07-.01.11-.02.24.46.48.91.76 1.43z" fill="#f39200"/><path d="m794.47-166.84c-.01 17.86-14.66 32.45-32.56 32.44-17.84-.01-32.42-14.68-32.4-32.6.02-17.83 14.7-32.39 32.64-32.36 17.75.03 32.32 14.7 32.32 32.52zm-32.57 17.33c9.49.05 17.38-7.75 17.45-17.24s-7.71-17.4-17.2-17.49c-9.55-.09-17.5 7.77-17.53 17.31-.03 9.49 7.79 17.37 17.28 17.42zm-2.09-45.58c-2.34.47-4.44.89-6.71 1.35.97 2.21 1.82 4.15 2.67 6.08 1.43-.29 2.71-.55 4.04-.82 0-2.14 0-4.21 0-6.61zm30.39 26.11c-.48-2.4-.9-4.51-1.35-6.78-2.21.97-4.15 1.81-6.05 2.65.22 1.25.38 2.36.65 3.43.07.28.5.66.77.67 1.88.06 3.75.03 5.98.03zm-55.1 10.99c2.19-.95 4.12-1.8 6.09-2.65-.28-1.4-.53-2.68-.8-4.03-2.14 0-4.24 0-6.59 0 .44 2.26.86 4.38 1.3 6.68zm53.79 0c.44-2.36.84-4.47 1.26-6.67-2.39 0-4.5 0-6.58 0-.27 1.41-.52 2.69-.78 4.02 1.98.86 3.88 1.69 6.1 2.65zm-29.11 19.31c0-2.41 0-4.52 0-6.62-1.39-.27-2.67-.52-4.04-.78-.87 2-1.71 3.94-2.63 6.08 2.28.45 4.36.86 6.67 1.32zm11.09-55.08c-2.29-.45-4.4-.86-6.67-1.31v6.6c1.33.26 2.61.52 4.03.8.84-1.96 1.68-3.89 2.64-6.09zm-35.77 17.98c-.45 2.33-.86 4.45-1.29 6.71h6.59c.27-1.38.53-2.66.8-4.03-1.95-.86-3.85-1.7-6.1-2.68zm29.07 37.12c2.33-.48 4.47-.92 6.7-1.38-.98-2.24-1.82-4.14-2.66-6.05-1.41.28-2.69.53-4.04.8zm-15.04-53.44c-1.94 1.32-3.69 2.51-5.27 3.58 1.63 1.68 3.12 3.2 4.59 4.71 1.04-.7 2.13-1.44 3.31-2.24-.85-1.94-1.68-3.85-2.63-6.05zm31.12 3.64c-1.78-1.19-3.53-2.36-5.42-3.61-.95 2.18-1.79 4.12-2.62 6.03 1.27.85 2.36 1.59 3.46 2.32 1.48-1.53 2.93-3.03 4.58-4.74zm-37.43 11.36c.84-1.26 1.6-2.39 2.23-3.35-1.54-1.59-2.99-3.09-4.6-4.76-1.21 1.79-2.39 3.55-3.67 5.46 2.11.93 4.01 1.76 6.04 2.65zm40.78-7.97c-1.73 1.65-3.23 3.09-4.76 4.55.77 1.12 1.53 2.24 2.33 3.42 1.99-.87 3.9-1.71 6.01-2.63-1.27-1.9-2.45-3.66-3.58-5.34zm-38.45 31.86c-.76-1.12-1.52-2.25-2.33-3.45-2 .88-3.93 1.73-6.04 2.66 1.33 1.95 2.53 3.7 3.64 5.33 1.67-1.62 3.18-3.06 4.73-4.54zm38.41 4.6c1.19-1.78 2.36-3.54 3.62-5.42-2.18-.94-4.12-1.79-6.03-2.62-.85 1.27-1.58 2.36-2.32 3.45 1.53 1.48 3.03 2.94 4.73 4.59zm-35.21-1.41c-1.55 1.54-3.03 3-4.7 4.65 1.82 1.22 3.59 2.41 5.49 3.68.95-2.18 1.77-4.09 2.62-6.03-1.19-.8-2.28-1.54-3.41-2.3zm31.89 4.71c-1.64-1.7-3.09-3.2-4.57-4.74-1.13.77-2.26 1.53-3.46 2.34.87 1.99 1.72 3.93 2.64 6.04 1.92-1.3 3.65-2.46 5.39-3.64z" fill="#f39200"/><path d="m760.23-172.58c-.45-.71-.8-1.5-1.36-2.12-1.53-1.72-1.55-4.36.04-6 1.61-1.66 4.28-1.74 5.96-.17 1.75 1.63 1.87 4.31.27 6.09-1.67 1.85-1.46 4.16.49 5.57.79.57 3.19.26 3.94-.51 1.47-1.5 3.64-1.87 5.34-.9s2.53 2.95 2.02 4.88c-.4 1.51-1.39 2.54-2.85 2.96-1.63.47-3.15.12-4.4-1.12-1.18-1.17-3.39-1.26-4.45-.19-1.53 1.54-1.66 3.54-.32 4.89 1.76 1.77 1.79 4.5.07 6.21-1.68 1.67-4.41 1.65-6.08-.06-1.69-1.72-1.69-4.52.2-6.17 1.3-1.13.95-2.59.6-3.66-.32-.96-1.25-2.07-2.8-1.92-1.07.1-1.98.08-2.85 1.02-1.61 1.75-4.4 1.56-6.05-.17-1.59-1.68-1.55-4.33.1-5.96 1.63-1.62 4.28-1.66 5.99-.09 1.79 1.65 4.26 1.43 5.53-.58.3-.47.23-1.17.33-1.76.11-.09.19-.16.28-.24z" fill="#f39200"/><path d="m346.04-184.37c.15.12.32.22.46.36 2.37 2.36 4.73 4.73 7.11 7.09.31.31.42.62.42 1.05-.01 3.26-.02 6.51.01 9.77 0 .51.12 1.07.36 1.52 4.72 8.92 12.07 14.24 22.07 15.58 12.12 1.62 23.8-4.65 29.26-15.51.25-.49.38-1.09.39-1.64.04-3.26.01-6.51.03-9.77 0-.26.07-.6.24-.77 2.52-2.55 5.07-5.08 7.68-7.69.02.26.05.45.05.63 0 6.49.01 12.98-.01 19.47 0 .41-.07.85-.24 1.22-5.46 11.99-14.62 19.47-27.6 21.73-16.99 2.96-33.08-5.96-40-21.76-.06-.14-.15-.26-.22-.39-.01-6.98-.01-13.93-.01-20.89z" fill="#f39200"/><path d="m348.94-187.26h62.26c-.22.24-.38.41-.54.58-2.52 2.52-5.03 5.06-7.57 7.56-.66.65-.97 1.36-.96 2.29.03 3.32.02 6.65 0 9.97 0 .4-.1.84-.3 1.19-4.38 7.58-10.9 12.11-19.64 12.77-10.5.8-18.44-3.71-23.84-12.72-.22-.37-.33-.87-.33-1.31-.03-3.32-.03-6.65 0-9.97.01-.89-.29-1.56-.91-2.18-2.55-2.52-5.08-5.07-7.62-7.61-.17-.15-.32-.33-.55-.57zm31.06 11.93h7.83c1.29 0 2.19-.81 2.2-1.97.01-1.19-.9-2.01-2.23-2.01-5.16 0-10.31 0-15.47 0-1.34 0-2.25.82-2.24 2.01.01 1.18.91 1.98 2.26 1.98 2.56-.01 5.11-.01 7.65-.01zm-15.85 2.66c1.08-.02 1.97-.93 1.96-2.01s-.91-1.98-1.99-1.98c-1.1 0-2.02.94-1.99 2.04.03 1.08.95 1.96 2.02 1.95zm31.87-3.99c-1.08 0-1.98.9-1.99 1.98s.88 1.99 1.96 2.01c1.1.02 2.03-.91 2.02-2.01 0-1.08-.91-1.98-1.99-1.98zm-15.97 19.94c1.08.01 1.99-.87 2.02-1.95.02-1.07-.86-2-1.93-2.03-1.1-.03-2.05.88-2.05 1.98-.01 1.07.88 1.98 1.96 2zm-11.81-9.96c.01-1.09-.88-1.99-1.96-2-1.07-.02-2 .87-2.02 1.95-.03 1.09.9 2.04 2 2.04 1.08-.01 1.98-.9 1.98-1.99zm25.68 1.98c1.07-.02 1.97-.94 1.96-2.01s-.92-1.98-1.99-1.98c-1.11 0-2.01.93-1.99 2.04.03 1.09.94 1.97 2.02 1.95zm-19.83 3.88c.02-1.08-.87-1.99-1.95-2.01s-2 .85-2.03 1.93c-.03 1.1.88 2.05 1.98 2.05 1.07 0 1.98-.9 2-1.97zm13.97-2.02c-1.08-.01-1.99.88-2 1.96-.02 1.1.92 2.04 2.01 2.02 1.07-.01 1.97-.92 1.97-2s-.89-1.97-1.98-1.98z" fill="#f39200"/><path d="m1161.18-170.6c1.96-1.02 4.13-1.48 6.2-2.17 3.16-1.06 6.34-2.06 9.51-3.09 2.19-.71 4.38-1.42 6.58-2.11.72-.22 1.36.05 1.89.51 1.47 1.29 2.91 2.61 4.36 3.93 2.43 2.21 4.85 4.43 7.27 6.65 1.61 1.47 3.23 2.94 4.83 4.42.94.87.94 1.94.67 3.09-.57 2.45-1.1 4.9-1.65 7.36-.44 1.99-.9 3.98-1.34 5.98-.54 2.44-1.06 4.87-1.59 7.31-.23 1.03-.86 1.69-1.86 2-3.54 1.13-7.08 2.26-10.62 3.39-3.42 1.1-6.84 2.21-10.26 3.31-.76.24-1.48 0-2.06-.49-.99-.83-1.94-1.71-2.89-2.58-2.99-2.74-5.97-5.48-8.96-8.22-1.42-1.3-2.8-2.63-4.27-3.88-1.09-.92-1.33-1.99-1.02-3.32.58-2.46 1.1-4.94 1.65-7.41.38-1.7.78-3.4 1.16-5.11.45-2.01.85-4.03 1.33-6.03.28-1.2.37-2.46 1.05-3.54zm22.4-4.25c-.03.01-.14.03-.24.06-.66.22-1.33.44-1.99.65-2.97.96-5.94 1.92-8.91 2.88-2.54.82-5.08 1.63-7.62 2.43-.42.13-.38.28-.11.52.37.34.73.7 1.11 1.04 2.71 2.47 5.42 4.94 8.13 7.42 1.75 1.6 3.5 3.21 5.25 4.81.18.17.35.3.65.2 3.02-.98 6.04-1.94 9.06-2.91 3.14-1.01 6.27-2.03 9.4-3.05.17-.05.44.01.46-.25.02-.22-.2-.31-.34-.43-2.26-2.06-4.51-4.12-6.77-6.19-2.54-2.32-5.07-4.65-7.61-6.97-.12-.11-.22-.24-.47-.21z" fill="#f39200"/><path d="m1155.97-164.26c-.33.85-.42 1.76-.63 2.64-.58 2.44-1.11 4.9-1.66 7.35 0 .02-.01.03-.01.05-.3 1.3-.31 1.32-1.65 1.02-3.14-.69-6.27-1.4-9.4-2.09-2.73-.6-5.45-1.21-8.18-1.77-1.19-.25-1.89-.9-2.25-2.06-.85-2.8-1.76-5.59-2.64-8.38-1.08-3.45-2.16-6.89-3.24-10.34-.22-.72-.44-1.43-.66-2.15-.26-.86.01-1.6.59-2.22 2.9-3.1 5.73-6.26 8.57-9.42 2.08-2.31 4.18-4.61 6.28-6.9.6-.65 1.36-.84 2.21-.65 2.64.59 5.27 1.2 7.91 1.8 2.64.59 5.28 1.16 7.92 1.75 1.94.43 3.88.86 5.82 1.3.98.23 1.54.9 1.83 1.84.72 2.3 1.43 4.6 2.16 6.89.75 2.36 1.5 4.72 2.26 7.08.23.7.21.78-.49 1.01-3.17 1.02-6.36 2-9.52 3.04-2.2.72-3.55 2.25-4.04 4.54-.36 1.69-.75 3.37-1.13 5.06-.03.14-.1.27-.03.41.01.05 0 .12-.02.2zm-18.44-26.15c-.06.06-.11.13-.17.19-.2.06-.3.23-.43.37-1.53 1.68-3.06 3.36-4.59 5.03-1.06 1.16-2.12 2.32-3.18 3.49-.19.21-.42.42.07.53.95.22 1.9.44 2.86.64 2.04.44 4.09.87 6.14 1.33 3.59.8 7.18 1.62 10.77 2.44.33.07.55 0 .78-.25 1.49-1.67 2.99-3.33 4.49-4.98 2.98-3.29 5.95-6.58 8.94-9.86.25-.28.22-.38-.13-.45-.96-.2-1.91-.4-2.86-.61-2.74-.61-5.48-1.24-8.22-1.85-1.38-.31-2.76-.6-4.14-.9-1.48-.33-2.96-.66-4.44-1-.39-.09-.65.03-.92.32-1.29 1.44-2.62 2.86-3.9 4.31-.37.4-.84.73-1.07 1.25z" fill="#f39200"/><path d="m1177.53-161.01c.47-.28.99-.44 1.5-.64.07-.01.14-.02.21-.02 1.16.04 2.29.19 3.27.88.64.45 1.13.99 1.01 1.86-.12.27-.31.49-.52.7-1.19.62-2.42.48-3.66.18-.07-.02-.13-.03-.2-.05-.35-.22-.71-.41-1.04-.65-.61-.46-.93-1.06-.77-1.85.06-.14.13-.27.2-.41z" fill="#f39200"/><path d="m1180.06-171.33c1.09-.8 2.29-.8 3.53-.46.05.01.1-.01.15-.02.07.02.15.04.22.05.39.22.79.42 1.16.68.89.62 1.06 1.21.66 2.18-.09.07-.21.12-.24.24-1.64.8-3.2.54-4.7-.36-.39-.23-.73-.54-.92-.97-.21-.47-.09-.91.13-1.34z" fill="#f39200"/><path d="m1144.81-180.13c1.03-1.74 2.63-2.26 4.54-2.13.39.03.68.24 1.02.36.04.03.08.06.11.09.01.13.08.2.2.23.02.06.05.13.07.19.14.91-.32 1.51-1.01 2.01-.66.48-1.43.69-2.19.94-.46 0-.92 0-1.38.01-.51-.24-1.03-.47-1.35-.97 0-.24-.01-.48-.01-.73z" fill="#f39200"/><path d="m1148.41-187.69c.46.93.27 1.63-.59 2.31-.79.63-1.73.87-2.68 1.08-.25 0-.5 0-.75 0-.28-.09-.56-.16-.82-.26-.42-.17-.67-.51-.87-.9 0-.14 0-.29 0-.43.38-.85.98-1.45 1.84-1.83.3-.13.65-.14.9-.39.07-.01.14-.02.21-.04.28.07.55-.05.83-.08.71-.06 1.33.18 1.92.52z" fill="#f39200"/><path d="m1142.81-190.39c-.25-.08-.5-.15-.74-.24-.82-.29-1.13-1.12-.67-1.86.66-1.06 1.71-1.47 2.86-1.72.53-.12 1.06-.11 1.6-.04.12.02.25.05.37.07.07.14.21.17.33.24.57.36.73.95.44 1.57-.07.16-.14.31-.21.47-.03.03-.07.07-.1.1-.12.02-.2.09-.22.22-.07.05-.13.1-.2.16-.91.56-1.88.93-2.95 1.04-.15 0-.33 0-.51-.01z" fill="#f39200"/><path d="m49.06-107.49c-.47-.04-.95-.03-1.4-.03h-7.83v-2.25c0-2 0-3.94 0-5.88 0-1.7-.42-2.98-1.24-3.79-.65-.64-1.47-.95-2.56-.95-1.39.01-3.72.66-3.73 4.81v8.06h-2.39c-2.18-.01-4.3-.01-6.41.02-1.29.02-2.41.47-3.14 1.27-.66.72-.99 1.7-.92 2.75.14 2.06 1.77 3.46 4.06 3.49 2.11.03 4.23.02 6.42.02h2.39v2.29 5.92c.01 2.93 1.36 4.63 3.72 4.66h.06c1.03 0 1.87-.32 2.51-.94.82-.81 1.24-2.09 1.25-3.79 0-1.23 0-2.47 0-3.7v-4.43h.84 2.22c.61 0 1.22 0 1.83.01 1.42.01 2.88.02 4.32-.04 2.12-.1 3.66-1.67 3.66-3.73-.02-2.05-1.52-3.59-3.66-3.77z" fill="#f39200"/><path d="m36.06-129.98c-14.3 0-25.93 11.63-25.93 25.93s11.63 25.93 25.93 25.93 25.93-11.63 25.93-25.93-11.64-25.93-25.93-25.93zm0 47.07c-11.66 0-21.15-9.49-21.15-21.15s9.49-21.15 21.15-21.15 21.15 9.49 21.15 21.15-9.49 21.15-21.15 21.15z" fill="#f39200"/><path d="m1511.05-182.75c.31 1.57.73 3 .84 4.46.14 1.89.03 3.81.04 5.71.01 1.76 0 3.38-1.19 4.99-1.45 1.96-.66 4.91 1.27 6.44 1.98 1.57 4.91 1.48 6.77-.23 1.87-1.72 2.14-4.52.84-6.74-.55-.93-.91-2.08-.97-3.16-.14-2.45-.16-4.92 0-7.36.09-1.38.62-2.72.95-4.07 8.74 2 14.35 10.48 13.38 19.61-.92 8.6-8.71 15.44-17.62 15.46-8.94.03-16.77-6.7-17.79-15.27-1.1-9.19 4.5-17.75 13.48-19.84z" fill="#f39200"/><path d="m1515.26-197.43h7.18c2.74 0 3.04.49 1.7 2.82-2.34 4.1-4.73 8.18-7.01 12.31-.45.81-.72 1.83-.74 2.75-.07 4.48-.03 8.96-.04 13.45 0 .85.15 1.91-1.12 1.9-1.28-.01-1.09-1.08-1.1-1.92-.01-4.42.05-8.84-.04-13.26-.02-1.04-.33-2.18-.83-3.09-2.28-4.14-4.67-8.21-7.02-12.31-1.16-2.04-.83-2.64 1.46-2.65 2.53-.01 5.04 0 7.56 0z" fill="#f39200"/><path d="m1496.18-182.85c1.38 1.43 2.64 2.74 3.94 4.1-2.67 3.23-4.44 6.92-4.89 11.2-.04.35-.66.88-1.04.91-1.51.1-3.03.04-4.71.04.38-6.33 2.57-11.65 6.7-16.25z" fill="#f39200"/><path d="m1534.55-182.59c3.92 4.35 6.06 9.65 6.48 16-1.68 0-3.25.06-4.8-.05-.36-.02-.93-.6-.97-.98-.47-4.21-2.18-7.86-4.95-11.21 1.36-1.2 2.71-2.4 4.24-3.76z" fill="#f39200"/><path d="m1514.07-145.41v5.62c-6.25-.21-11.51-2.56-16.23-6.62 1.4-1.35 2.71-2.61 4.12-3.97 3.42 2.88 7.41 4.6 12.11 4.97z" fill="#f39200"/><path d="m1528.58-150.43c1.39 1.37 2.68 2.65 4.06 4.02-4.63 4.09-9.9 6.34-16.14 6.66 0-1.88 0-3.67 0-5.63 4.51-.42 8.59-2.04 12.08-5.05z" fill="#f39200"/><path d="m1534.38-148.17c-1.38-1.36-2.68-2.63-4.05-3.97 2.7-3.3 4.47-6.99 4.92-11.26.04-.34.65-.87 1.02-.9 1.51-.1 3.03-.04 4.74-.04-.34 6.33-2.58 11.62-6.63 16.17z" fill="#f39200"/><path d="m1500.04-151.9c-1.19 1.2-2.44 2.45-3.82 3.83-4.15-4.61-6.36-9.92-6.74-16.16h5.41c.62 2.23 1.02 4.41 1.86 6.41.83 2 2.1 3.82 3.29 5.92z" fill="#f39200"/><path d="m1506.36-190.1c1.17 2.05 2.06 3.62 2.88 5.07-2.55 1.45-4.97 2.83-7.35 4.18-1.15-1.16-2.42-2.45-4.01-4.06 2.69-1.64 5.49-3.36 8.48-5.19z" fill="#f39200"/><path d="m1528.54-180.89c-2.3-1.31-4.72-2.69-7.28-4.15.82-1.44 1.72-3.01 2.86-5.02 2.91 1.74 5.73 3.43 8.56 5.12-1.59 1.55-2.88 2.81-4.14 4.05z" fill="#f39200"/><path d="m1888.81-184.34c.44-1.49 1.08-2.86 2.47-3.7.51-.31 1.07-.57 1.64-.76 3.72-1.23 7.46-2.44 11.19-3.65.22-.07.44-.12.66-.18v1.78c0 14.03.01 28.06 0 42.09 0 3.71 1.47 6.65 4.55 8.71.94.63 2.05 1.02 3.16 1.55-1.65.48-3.19 1.32-4.95 1.32-2.44 0-4.43-1.54-5.25-4.05-1.04-3.18-2.07-6.36-3.1-9.54-3.31-10.19-6.62-20.38-9.93-30.57-.15-.47-.29-.95-.43-1.43-.01-.52-.01-1.04-.01-1.57z" fill="#f19021"/><path d="m1951.07-137.08c-.69-.16-1.39-.28-2.06-.5-9.04-2.92-18.08-5.86-27.12-8.8-2.86-.93-4.38-2.96-4.25-5.73.03-.6.19-1.2.37-1.77 4.32-13.32 8.65-26.64 12.97-39.97.77-2.38 2.28-3.91 4.81-4.18.83-.09 1.75.06 2.56.32 9.12 2.93 18.24 5.9 27.35 8.87 3.43 1.12 4.89 4 3.78 7.41-4.35 13.4-8.7 26.79-13.06 40.19-.84 2.56-2.85 4.08-5.35 4.16zm-5.37-37.82c-.08-.28-.16-.55-.24-.81-1.07-3.52-3.55-5.4-6.88-4.97-2.82.36-4.52 2.22-5.47 4.78-1.12 3.02-.56 5.98.5 8.87 1.35 3.68 3.53 6.88 5.98 9.9.14.17.56.28.78.21 1.96-.62 3.93-1.19 5.83-1.96 2.97-1.21 5.74-2.79 7.94-5.2 1.79-1.95 2.87-4.19 2.78-6.92-.16-4.66-5.06-7.59-9.15-5.4-.73.41-1.36.99-2.07 1.5z" fill="#f19021"/><path d="m1927.36-196.8c-1.43 4.4-2.85 8.78-4.28 13.15-3.08 9.46-6.16 18.92-9.23 28.39-1.61 4.96.12 9.54 4.61 12.22.09.05.17.11.24.25-2.53-.11-5.19.66-7.45-1.22-1.46-1.21-2.14-2.79-2.14-4.65-.01-14.14-.02-28.27.01-42.41.01-3.34 2.35-5.72 5.66-5.77 4.09-.06 8.18-.01 12.26-.01.1.02.2.04.32.05z" fill="#f19021"/></svg>