<svg enable-background="new 0 0 84.43 81.84" viewBox="0 0 84.43 81.84" xmlns="http://www.w3.org/2000/svg"><g fill="#f39200"><path d="m43.27 51.04c0 .63-.55 1.1-1.49 1.29-.24.04-.82.2-1.57.31-1.33.16-3.26.24-5.76.24-3.29 0-5.37-.08-6.24-.16-.82-.12-1.49-.39-1.84-.78-.31-.43-.43-.82-.43-1.53v-16.35c0-.86-.08-1.76-.16-2.59-.12.04-.24.04-.39.04h-13.03c-2.24 0-3.65.16-4.27.39l-1.1-2.47c1.18.39 2.82.55 5.37.55h1.02c-.31-.2-.55-.55-.67-1.02-.43-1.57-.98-2.82-1.65-3.65l.63-.75c1.41.82 2.47 1.61 2.98 2.2.63.78.9 1.33.9 1.92 0 .31-.08.55-.35.9-.08.16-.16.27-.27.39h2.63c.67-1.73 1.14-3.53 1.49-5.45h-5.69c-2.24 0-3.53.16-4.27.35l-1.06-2.39c1.06.35 2.78.55 5.33.55h2.31c-.35-.24-.63-.63-.75-1.18-.51-1.25-1.22-2.35-2-2.98l.71-.71c1.65.59 2.78 1.22 3.37 1.69.78.71 1.1 1.18 1.1 1.65 0 .39-.12.75-.43 1.14-.12.16-.24.27-.39.39h3.61l.82-.86c.35-.43.71-.78 1.14-.78.51 0 .98.39 1.65 1.06h.04c.82 1.06.98 1.25.98 1.37 0 .47-.35.71-.94.71h-4.27l1.57.59c.86.31 1.29.67 1.29 1.06 0 .27-.39.47-.9.55l-.2.04c-.04 0-.08 0-.08.04-.75 1.14-1.57 2.2-2.51 3.18h1.96l.16-.16c.24-.27.39-.43.71-.75.43-.47.71-.82 1.14-.82.51 0 1.1.43 1.76 1.06.9 1.02 1.1 1.25 1.1 1.41 0 .2-.04.35-.16.47 1.02.39 1.88.75 2.55 1.18h7.77v-3.73h-7.02c-.51.63-.98.98-1.49.98-.31 0-.78-.08-1.06-.24l.04.04c-.94-.43-1.49-.78-1.49-1.02 0-.2.16-.43.39-.82l-.04.04c.12-.2.24-.59.27-.94v-5.53c0-.59-.16-1.45-.31-2.43l3.37.27c.59.16 1.02.43 1.02.78 0 .31-.43.63-1.06.94v1.84h8.08c.2-.2.51-.47.94-.94.51-.55.82-.86 1.29-.86.51 0 1.18.59 2.04 1.41.71.71 1.02 1.02 1.02 1.18 0 .51-.39.78-.94.78h-12.43v2.94h7.1l.51-.31c.08-.04.16-.08.16-.12.31-.2.75-.35 1.1-.35.43 0 .98.27 1.57.71.74.63 1.06.98 1.06 1.25 0 .24-.24.43-.67.67-.16.12-.27.2-.43.43v4.86c0 .31-.31.55-.75.67-.39.08-.86.16-1.25.16-.67 0-1.02-.24-1.02-.75v-.39h-7.53v2.86h6.78c0-.04.12-.16.27-.31l.47-.39c.35-.43.71-.75 1.14-.75s1.06.59 1.73 1.22c.71.63.94.86.94.98 0 .51-.35.78-.94.78h-10.4v2.86h6.47l.78-.82c.39-.43.82-.75 1.25-.75.47 0 1.14.51 1.84 1.22.67.59.98.94.98 1.1 0 .51-.35.78-.94.78h-10.38v2.67h6.08l.86-.82c.39-.47.86-.86 1.29-.86.51 0 1.06.51 1.96 1.33l.78.78c.08-.51.2-1.1.27-1.69l1.41.24.24 4.75c.04.16.04.27.08.35.95.59 1.35 1.02 1.35 1.61zm-19.22-16.31c0 .39-.27.67-.75.86-.24.16-.27.24-.27.43v15.29c0 .86-.59 1.45-1.73 1.92-.75.31-1.45.51-2 .51-.71 0-1.14-.35-1.14-1.02-.08-.59-.98-1.06-2.98-1.53l.27-1.02c1.61.24 2.82.39 3.84.39.55 0 .71-.12.71-.47v-5.14h-6.94v7.84c0 .24-.24.35-.67.55-.67.16-1.02.24-1.37.24-.67 0-1.18-.27-1.18-.78.08-.75.16-1.41.16-2.12v-14.74c0-1.1-.12-2.16-.2-3.26 1.1.39 2.16.82 3.1 1.37h6.71l.67-.75c.31-.43.71-.71 1.14-.71.35 0 .78.31 1.49.78l.04.04c.71.65 1.1 1.12 1.1 1.32zm-4.04.82h-6.94v3.18h6.94zm0 4.71h-6.94v3.14h6.94zm19.73 6.51c-.16.08-.35.12-.59.12h-10.2v2.75c0 .24.04.39.08.51.35.27.9.27 5.41.27h1.88c1.33 0 2.04-.16 2.39-.55.28-.24.63-1.42 1.03-3.1z"/><path d="m77.14 40.7c0 .43-.47.71-1.06.75-.31.08-.59.2-.94.47-1.41 1.02-2.78 1.96-4.24 2.86l-.31-.27v.04c0 .43-.43.67-1.02.67l-9.29 1.14v1.41c0 .59.2.98.39 1.02.94.16 2.27.2 4.86.2 1.25 0 2.39-.04 3.45-.12.75-.08.9-.16 1.14-.43 0-.12.12-.63.16-.78.08-.31.16-.82.24-1.29.08-.59.12-.78.24-1.29l1.33.31c.08 1.49.2 2.35.27 2.67.04.27.08.35.27.43h-.04c1.06.24 1.73.55 1.73.9s-.24.71-.71 1.1c-.51.24-1.37.51-2.39.59-1.45.16-3.37.2-5.69.2-3.41 0-5.45-.08-6.31-.27-.27-.04-.51-.12-.75-.24-1.22-.71-1.37-1.02-1.37-2.43v-1.57l-2.04.24c-1.69.2-3.22.55-4.63 1.02l-1.18-2.04c2.27 0 3.22-.08 3.73-.31l4.12-.51v-2c0-.94-.08-1.76-.2-2.67.94.08 1.96.2 3.37.39.78.12 1.53.31 1.53.63 0 .43-.43.78-1.18 1.02-.24.08-.35.24-.35.51v1.73l5.37-.63.43-.86c.31-.75.67-1.29 1.29-1.29.43 0 1.1.39 1.8.94.43.39.78.75 1.02.98.71-.98 1.41-2.2 2.12-3.61h-23.2v4.67c0 3.45-.16 6.59-.43 9.49-.39 2.39-1.06 4.59-2 6.82-.86 1.69-2.04 3.45-3.65 5.29l-1.06-.78c1.41-2.59 2.47-5.18 3.02-7.69.63-3.02.94-7.57.94-13.14 0-3.22-.08-5.61-.24-7.02l.67-.27c1.02.43 1.76.82 2.31 1.14h9.26v-5.49c0-.67-.08-1.45-.24-2.31.75.04.94.08 2.2.24.39.08.9.16 1.37.2.82.12 1.57.35 1.57.67 0 .43-.39.75-1.22 1.1-.31.08-.39.24-.39.47v.59h8.79c.12-.12.39-.35.82-.86.51-.47.86-.82 1.29-.82.47 0 1.14.55 1.96 1.33.63.55.98.94.98 1.14 0 .51-.35.75-.94.75h-12.9v3.02h11.1c.39-.27.51-.39.78-.59.39-.24.82-.39 1.06-.39.55 0 1.06.43 1.76 1.18.84.71 1.23 1.26 1.23 1.65zm-.28 22.83c0 .51-.43.86-1.1 1.1-.43.12-1.25.31-2.35.43-1.14.16-2.63.24-4.24.24-1.57 0-2.71-.08-3.26-.2-.63-.2-1.14-.43-1.45-.78-.47-.43-.59-.94-.59-1.88v-7.18h-6.43c-.04 2.63-.35 4.47-.9 5.65-.71 1.37-1.73 2.47-3.26 3.45-1.33.9-3.14 1.69-5.14 2.24l-.55-.94c1.8-.78 3.45-1.96 4.94-3.57h-.04c1.06-1.45 1.69-3.33 1.76-5.33 0-1.53-.08-2.9-.24-4.12.82.27 1.76.67 2.55 1.1h7.1l.55-.51c.35-.39.75-.67 1.14-.67s.94.35 1.57.82c.78.71 1.14 1.14 1.14 1.45 0 .2-.24.43-.55.59-.35.12-.43.35-.43.59v6.31c0 .55.12.67.59.67h2.63c.75 0 1.18-.12 1.61-.43.35-.24.67-.82.78-1.57l.71-5.25 1.37.23.24 5.61c0 .31.12.51.47.63.87.3 1.38.77 1.38 1.32z"/></g></svg>