<svg viewBox="0 0 64.63 57.45" xmlns="http://www.w3.org/2000/svg"><path d="m64.62 35.42a.73.73 0 0 0 -.05.2 21.79 21.79 0 0 1 -1.88 8.38 22.42 22.42 0 0 1 -20.59 13.45h-13.16a3.59 3.59 0 0 1 -.45-7.16h4 9.24a15.27 15.27 0 0 0 7.53-1.78 15 15 0 0 0 7.84-10.65 14.59 14.59 0 0 0 -1.08-9.06 15.23 15.23 0 0 0 -13.8-9h-30l.3.32 6 6a3.63 3.63 0 0 1 .84 4.24 3.58 3.58 0 0 1 -5.74 1l-12.52-12.63a3.54 3.54 0 0 1 -1-2.21c0-.06 0-.12 0-.17v-.35a.39.39 0 0 0 .05-.14 3.58 3.58 0 0 1 1.1-2.31l2.49-2.55 9.86-9.87a3.66 3.66 0 0 1 1.94-1l.46-.13h.25l.24.06a3.51 3.51 0 0 1 2.69 1.67 3.59 3.59 0 0 1 -.64 4.57l-6 6-.3.32h5.46 25.09a20.56 20.56 0 0 1 8.78 2.05 22.43 22.43 0 0 1 12.94 18.48l.12 1.49c-.01.28-.01.53-.01.78z" fill="#f39200"/></svg>