<svg enable-background="new 0 0 69.6 67.9" viewBox="0 0 69.6 67.9" xmlns="http://www.w3.org/2000/svg"><g fill="#f39200"><path d="m.8 14.7c.2.1.3.2.5.3 2.4 2.4 4.7 4.7 7.1 7.1.3.3.4.6.4 1v9.8c0 .5.1 1.1.4 1.5 4.7 8.9 12.1 14.2 22.1 15.6 12.1 1.6 23.8-4.7 29.3-15.5.2-.5.4-1.1.4-1.6 0-3.3 0-6.5 0-9.8 0-.3.1-.6.2-.8 2.5-2.6 5.1-5.1 7.7-7.7v.6 19.5c0 .4-.1.9-.2 1.2-5.5 12-14.7 19.5-27.7 21.8-17 3-33.1-6-40-21.8-.1-.1-.1-.3-.2-.4 0-6.9 0-13.9 0-20.8z"/><path d="m3.7 11.8h62.3c-.2.2-.4.4-.5.6-2.5 2.5-5 5.1-7.6 7.6-.7.6-1 1.4-1 2.3v10c0 .4-.1.8-.3 1.2-4.4 7.4-10.9 12-19.6 12.6-10.5.8-18.4-3.7-23.8-12.7-.2-.4-.3-.9-.3-1.3 0-3.3 0-6.6 0-10 0-.9-.3-1.6-.9-2.2-2.6-2.5-5.1-5.1-7.6-7.6-.3-.1-.5-.3-.7-.5zm31.1 11.9h7.8c1.3 0 2.2-.8 2.2-2s-.9-2-2.2-2c-5.2 0-10.3 0-15.5 0-1.3 0-2.2.8-2.2 2s.9 2 2.3 2zm-15.9 2.6c1.1 0 2-.9 2-2s-.9-2-2-2-2 .9-2 2c0 1.2.9 2.1 2 2zm31.9-3.9c-1.1 0-2 .9-2 2s.9 2 2 2 2-.9 2-2-.9-2-2-2zm-16 19.9c1.1 0 2-.9 2-1.9 0-1.1-.9-2-1.9-2-1.1 0-2 .9-2.1 2 0 1 .9 1.9 2 1.9zm-11.8-10c0-1.1-.9-2-2-2s-2 .9-2 1.9c0 1.1.9 2 2 2 1.1.1 2-.8 2-1.9zm25.7 2c1.1 0 2-.9 2-2s-.9-2-2-2-2 .9-2 2c0 1.2.9 2 2 2zm-19.8 3.9c0-1.1-.9-2-1.9-2-1.1 0-2 .8-2 1.9s.9 2 2 2.1c.9 0 1.8-.9 1.9-2zm13.9-2c-1.1 0-2 .9-2 2s.9 2 2 2 2-.9 2-2-.9-2-2-2z"/></g></svg>