<?xml version="1.0" encoding="utf-8"?>
<!-- Generator: Adobe Illustrator 28.0.0, SVG Export Plug-In . SVG Version: 6.00 Build 0)  -->
<svg version="1.1" id="Layer_1" xmlns="http://www.w3.org/2000/svg" xmlns:xlink="http://www.w3.org/1999/xlink" x="0px" y="0px"
	 viewBox="0 0 75.8 75.8" style="enable-background:new 0 0 75.8 75.8;" xml:space="preserve">
<style type="text/css">
	.st0{fill:#F19021;}
</style>
<g>
	<g>
		<path class="st0" d="M37.7,72.2c-18.6,0-33.6-15-33.6-33.5c0-18.5,15-33.5,33.5-33.5c18.6,0,33.6,15,33.6,33.5
			C71.2,57.1,56.2,72.1,37.7,72.2z M37.6,10.7c-15.4,0-27.9,12.4-28,27.8c0,15.5,12.4,28,27.9,28c15.4,0,28-12.4,28-27.8
			C65.6,23.2,53.1,10.7,37.6,10.7z"/>
		<path class="st0" d="M43.6,49.7c-0.8,3-2.2,5.6-4.6,7.5c-1.7,1.3-3.5,2-5.7,1.4c-2-0.5-3.1-2.1-3.3-4.6c-0.2-2.5,0.4-4.9,1-7.3
			c1.1-5,2.2-9.9,3.4-14.9c0.1-0.3,0.2-0.6,0.2-0.9c2.5,0,4.9,0,7.4,0c-0.2,0.9-0.3,1.7-0.5,2.6C40.4,39,39.2,44.4,38,49.8
			c-0.1,0.6-0.2,1.2-0.3,1.9c0,1,0.6,1.4,1.5,0.9c0.7-0.5,1.5-1.1,1.8-1.9c0.4-0.9,0.9-1.2,1.8-1C43,49.7,43.3,49.7,43.6,49.7z"/>
		<path class="st0" d="M45.1,21.9c0,2.5-2,4.5-4.6,4.5c-2.8,0-5.1-2.4-5.1-5.2c0-2.6,1.9-4.4,4.6-4.4C42.9,16.7,45.2,19,45.1,21.9z"
			/>
	</g>
</g>
</svg>
