<?xml version="1.0" encoding="utf-8"?>
<!-- Generator: Adobe Illustrator 26.3.1, SVG Export Plug-In . SVG Version: 6.00 Build 0)  -->
<svg version="1.1" id="Layer_1" xmlns="http://www.w3.org/2000/svg" xmlns:xlink="http://www.w3.org/1999/xlink" x="0px" y="0px"
	 viewBox="0 0 46.82 41.88" style="enable-background:new 0 0 46.82 41.88;" xml:space="preserve">
<style type="text/css">
	.st0{fill:#F39200;}
	.st1{fill:#26272B;}
</style>
<g>
	<circle class="st0" cx="22.93" cy="20.06" r="18.01"/>
	<g>
		<g>
			<g>
				<path class="st1" d="M21.81,30.8c-0.74,0-1.48-0.22-2.14-0.66c-0.69-0.47-1.38-0.95-2.06-1.43l-1.58-1.1
					c-0.78-0.54-1.55-1.07-2.33-1.62c-0.43,0-0.86,0-1.29,0l-0.68,0c0,0,0,0,0,0c-0.57,0-1.06-0.17-1.47-0.5
					c-0.55-0.45-0.84-1.07-0.84-1.8c0-0.56,0-1.13,0-1.69l0-1.64c0-1.36,0-2.73,0-4.09c0-0.25,0.02-0.47,0.07-0.67
					c0.2-0.88,0.94-1.55,1.84-1.67c0.17-0.02,0.32-0.03,0.45-0.03l0.22,0c0.57,0,1.13,0,1.7,0c1.12-0.74,2.24-1.47,3.36-2.2
					l2.61-1.71c0.64-0.42,1.33-0.65,2.04-0.67c1.01-0.02,2.02,0.37,2.76,1.09c0.72,0.71,1.12,1.67,1.12,2.71c0,0.98,0,1.97,0,2.95
					l0,10.9c0,0.86-0.25,1.63-0.73,2.28C24.12,30.26,22.97,30.8,21.81,30.8z M13.83,23.64c0.4,0,0.76,0.12,1.09,0.34
					c0.81,0.57,1.62,1.13,2.43,1.69l1.59,1.1c0.68,0.47,1.36,0.95,2.05,1.41c0.67,0.45,1.5,0.31,1.99-0.34
					c0.18-0.24,0.27-0.52,0.27-0.87l0-10.9c0-0.98,0-1.97,0-2.95c0-0.42-0.14-0.76-0.41-1.03c-0.28-0.27-0.7-0.43-1.06-0.43
					c-0.27,0.01-0.53,0.1-0.81,0.28l-2.61,1.71c-1.16,0.76-2.32,1.52-3.48,2.28c-0.31,0.2-0.66,0.31-1.03,0.31c0,0-0.01,0-0.01,0
					c-0.61,0-1.22,0-1.83,0l-0.22,0c-0.01,0-0.01,0-0.02,0c0,0.01,0,0.02,0,0.02c0,1.37,0,2.73,0,4.09l0,1.64c0,0.55,0,1.1,0,1.65
					l0.64,0c0.47,0,0.94,0,1.4,0C13.82,23.64,13.83,23.64,13.83,23.64z M11.67,23.64C11.67,23.64,11.67,23.64,11.67,23.64
					S11.67,23.64,11.67,23.64z M11.65,16.26C11.65,16.26,11.65,16.26,11.65,16.26C11.65,16.26,11.65,16.26,11.65,16.26z"/>
			</g>
		</g>
		<path class="st1" d="M31.89,22.03c-0.08,0.08-0.15,0.15-0.22,0.22c-0.65,0.65-1.32,1.29-1.95,1.96c-0.46,0.49-1.19,0.51-1.64,0
			c-0.12-0.14-0.26-0.26-0.39-0.39c-0.44-0.46-0.44-1.06,0-1.51c0.67-0.67,1.34-1.34,2.01-2.01c0.07-0.07,0.14-0.14,0.22-0.23
			c-0.08-0.08-0.15-0.15-0.22-0.22c-0.67-0.67-1.34-1.34-2.01-2.01c-0.32-0.32-0.44-0.72-0.25-1.13c0.22-0.48,0.6-0.85,1.08-1.08
			c0.37-0.18,0.75-0.08,1.07,0.2c0.12,0.11,0.23,0.23,0.35,0.35c0.58,0.58,1.16,1.16,1.74,1.74c0.06,0.06,0.13,0.12,0.21,0.2
			c0.08-0.08,0.15-0.15,0.22-0.22c0.67-0.67,1.34-1.34,2.01-2.01c0.32-0.32,0.72-0.44,1.13-0.25c0.48,0.22,0.85,0.6,1.08,1.08
			c0.18,0.37,0.09,0.75-0.19,1.07c-0.13,0.15-0.28,0.29-0.42,0.43c-0.55,0.55-1.11,1.11-1.66,1.66c-0.06,0.06-0.12,0.13-0.2,0.21
			c0.08,0.08,0.15,0.15,0.22,0.22c0.65,0.65,1.29,1.32,1.96,1.95c0.5,0.47,0.51,1.19,0,1.64c-0.14,0.12-0.26,0.26-0.39,0.38
			c-0.46,0.44-1.06,0.44-1.51,0c-0.68-0.67-1.36-1.35-2.03-2.03C32.04,22.16,31.97,22.1,31.89,22.03z"/>
	</g>
</g>
</svg>
