<?xml version="1.0" encoding="utf-8"?>
<!-- Generator: Adobe Illustrator 26.3.1, SVG Export Plug-In . SVG Version: 6.00 Build 0)  -->
<svg version="1.1" id="Layer_1" xmlns="http://www.w3.org/2000/svg" xmlns:xlink="http://www.w3.org/1999/xlink" x="0px" y="0px"
	 viewBox="0 0 46.82 41.88" style="enable-background:new 0 0 46.82 41.88;" xml:space="preserve">
<g>
	<path class="st0" d="M26.49,16.46c0-0.44,0-0.84,0-1.24c0-1.57,0-3.13,0-4.7c0-0.97,0.73-1.63,1.67-1.55
		c0.38,0.03,0.68,0.22,0.95,0.48c1.18,1.19,2.37,2.37,3.55,3.55c2.25,2.25,4.5,4.5,6.75,6.75c0.77,0.77,0.77,1.63,0,2.4
		c-3.43,3.43-6.86,6.86-10.29,10.28c-0.6,0.6-1.4,0.68-2.04,0.2c-0.44-0.32-0.6-0.78-0.6-1.31c0-1.84,0-3.69,0-5.53
		c0-0.1,0-0.2,0-0.35c-0.12,0-0.23,0-0.33,0c-2.67,0-5.35,0-8.02,0c-0.82,0-1.4-0.41-1.58-1.12c-0.05-0.18-0.05-0.37-0.05-0.55
		c0-1.89,0-3.77,0-5.66c0-1.07,0.6-1.67,1.67-1.67c2.66,0,5.31,0,7.97,0C26.24,16.46,26.35,16.46,26.49,16.46z" style="fill:#F39200"/>
	<path class="st0" d="M8.5,20.97c0-1.96,0-3.93,0-5.89c0-3.04,2.01-5.46,4.99-6.02c0.36-0.07,0.74-0.08,1.11-0.08
		c1.67-0.01,3.33,0,5,0c0.61,0,0.88,0.28,0.88,0.88c0,0.74,0,1.47,0,2.21c0,0.64-0.27,0.91-0.92,0.91c-1.67,0-3.33,0-5,0
		c-1.05,0-1.84,0.64-2.04,1.62c-0.03,0.17-0.03,0.35-0.03,0.53c0,3.89,0.02,7.79-0.01,11.68c-0.01,1.13,0.79,2.18,2.16,2.17
		c1.63-0.02,3.27,0,4.9,0c0.69,0,0.94,0.25,0.94,0.95c0,0.74,0,1.49,0,2.23c0,0.51-0.3,0.8-0.81,0.81c-1.77,0-3.54,0.02-5.31-0.01
		c-3.25-0.05-5.85-2.69-5.88-5.94C8.49,24.99,8.5,22.98,8.5,20.97z" style="fill:#F39200"/>
</g>
</svg>
