<?xml version="1.0" encoding="utf-8"?>
<!-- Generator: Adobe Illustrator 26.3.1, SVG Export Plug-In . SVG Version: 6.00 Build 0)  -->
<svg version="1.1" id="Layer_1" xmlns="http://www.w3.org/2000/svg" xmlns:xlink="http://www.w3.org/1999/xlink" x="0px" y="0px"
	 viewBox="0 0 46.82 41.88" style="enable-background:new 0 0 46.82 41.88;" xml:space="preserve">
<style type="text/css">
	.st0{fill:#F39200;}
	.st1{fill:#26272B;}
</style>
<g>
	<circle class="st0" cx="22.7" cy="20.44" r="18.01"/>
	<g>
		<g>
			<path class="st1" d="M14.2,15.29c0-0.8-0.01-1.12-0.09-1.62h2.43c-0.07,0.46-0.09,0.79-0.09,1.52v0.67h3.66
				c0.74,0,1.07-0.01,1.5-0.06c-0.04,0.44-0.06,0.72-0.06,1.37v4.74c0,0.8,0.01,1.13,0.07,1.56h-2.29v-0.74h-2.89v2.52
				c0,0.9,0.03,1.4,0.1,1.92H14.1c0.07-0.59,0.1-1.06,0.1-1.92v-2.52h-2.76v0.74H9.14c0.06-0.43,0.07-0.86,0.07-1.56v-4.75
				c0-0.6-0.01-0.93-0.06-1.36c0.52,0.04,0.82,0.06,1.49,0.06h3.55V15.29z M11.43,17.95v2.69h2.76v-2.69H11.43z M19.35,20.64v-2.69
				h-2.89v2.69H19.35z"/>
			<path class="st1" d="M33.75,17.73c-0.34,1.3-0.56,1.9-1.03,2.81c-0.47,0.89-0.97,1.6-1.65,2.36c1.56,1.05,2.96,1.59,5.2,2.03
				c-0.6,0.76-0.89,1.3-1.26,2.26c-2.48-0.79-3.92-1.52-5.58-2.79c-1.6,1.23-3.18,2-5.74,2.81c-0.32-0.83-0.62-1.39-1.2-2.15
				c2.48-0.6,3.94-1.2,5.31-2.16c-0.74-0.82-1.3-1.6-1.8-2.5c-0.47-0.86-0.69-1.36-1.1-2.66H24.6c-0.69,0-1.33,0.03-1.9,0.09V15.6
				c0.59,0.07,1.16,0.1,1.96,0.1h3.41v-0.92c0-0.36-0.03-0.67-0.09-0.97h2.48c-0.06,0.3-0.09,0.6-0.09,0.96v0.93h3.62
				c0.8,0,1.39-0.03,1.98-0.1v2.22c-0.57-0.06-1.15-0.09-1.89-0.09H33.75z M27.21,17.73c0.3,0.93,0.5,1.4,0.96,2.16
				c0.4,0.67,0.74,1.12,1.2,1.6c0.46-0.5,0.8-0.99,1.13-1.59c0.4-0.7,0.54-1.09,0.86-2.18H27.21z"/>
		</g>
	</g>
</g>
</svg>
