<?xml version="1.0" encoding="utf-8"?>
<!-- Generator: Adobe Illustrator 26.3.1, SVG Export Plug-In . SVG Version: 6.00 Build 0)  -->
<svg version="1.1" id="Layer_1" xmlns="http://www.w3.org/2000/svg" xmlns:xlink="http://www.w3.org/1999/xlink" x="0px" y="0px"
	 viewBox="0 0 46.82 41.88" style="enable-background:new 0 0 46.82 41.88;" xml:space="preserve">
<style type="text/css">
	.st0{fill:#F39200;}
	.st1{fill:#26272B;}
</style>
<g>
	<circle class="st0" cx="23.52" cy="20.99" r="18.01"/>
	<g>
		<g>
			<path class="st1" d="M22.66,31.73c-0.74,0-1.48-0.22-2.14-0.66c-0.69-0.47-1.38-0.95-2.06-1.43l-1.58-1.1
				c-0.78-0.54-1.55-1.07-2.33-1.62c-0.43,0-0.86,0-1.29,0l-0.68,0c0,0,0,0,0,0c-0.57,0-1.06-0.17-1.47-0.5
				c-0.55-0.45-0.84-1.07-0.84-1.8c0-0.56,0-1.13,0-1.69l0-1.64c0-1.36,0-2.73,0-4.09c0-0.25,0.02-0.47,0.07-0.67
				c0.2-0.88,0.94-1.55,1.84-1.67c0.17-0.02,0.32-0.03,0.45-0.03l0.22,0c0.57,0,1.13,0,1.7,0c1.12-0.74,2.24-1.47,3.36-2.2
				l2.61-1.71c0.64-0.42,1.33-0.65,2.04-0.67c1.01-0.02,2.02,0.37,2.76,1.09c0.72,0.71,1.12,1.67,1.12,2.71c0,0.98,0,1.97,0,2.95
				l0,10.9c0,0.86-0.25,1.63-0.73,2.28C24.97,31.19,23.82,31.73,22.66,31.73z M14.69,24.58c0.4,0,0.76,0.12,1.09,0.34
				c0.81,0.57,1.62,1.13,2.43,1.69l1.59,1.1c0.68,0.47,1.36,0.95,2.05,1.41c0.67,0.45,1.5,0.31,1.99-0.34
				c0.18-0.24,0.27-0.52,0.27-0.87l0-10.9c0-0.98,0-1.97,0-2.95c0-0.42-0.14-0.76-0.41-1.03c-0.28-0.27-0.7-0.43-1.06-0.43
				c-0.27,0.01-0.53,0.1-0.81,0.28L19.2,14.6c-1.16,0.76-2.32,1.52-3.48,2.28c-0.31,0.2-0.66,0.31-1.03,0.31c0,0-0.01,0-0.01,0
				c-0.61,0-1.22,0-1.83,0l-0.22,0c-0.01,0-0.01,0-0.02,0c0,0.01,0,0.02,0,0.02c0,1.37,0,2.73,0,4.09l0,1.63c0,0.55,0,1.1,0,1.65
				l0.64,0c0.47,0,0.94,0,1.4,0C14.68,24.58,14.68,24.58,14.69,24.58z M12.53,24.58C12.53,24.58,12.53,24.58,12.53,24.58
				S12.53,24.58,12.53,24.58z M12.51,17.19C12.51,17.19,12.51,17.19,12.51,17.19C12.51,17.19,12.51,17.19,12.51,17.19z"/>
		</g>
		<path class="st1" d="M36.77,21.17c-0.08,3.39-1.51,6.47-4.37,8.87c-0.09,0.08-0.19,0.15-0.3,0.21c-0.51,0.28-1.12,0.18-1.54-0.25
			c-0.42-0.44-0.51-1.04-0.2-1.54c0.07-0.11,0.16-0.2,0.26-0.28c1.76-1.41,2.92-3.2,3.36-5.4c0.59-2.92-0.07-5.56-1.95-7.88
			c-0.43-0.53-0.93-1-1.47-1.42c-0.46-0.35-0.6-0.91-0.36-1.44c0.35-0.78,1.31-1.09,2.04-0.51c2.14,1.73,3.55,3.92,4.2,6.6
			C36.67,19.02,36.76,19.92,36.77,21.17z"/>
		<path class="st1" d="M32.2,20.85c-0.07,2.66-1.19,4.75-3.43,6.21c-0.46,0.3-0.99,0.25-1.35-0.12c-0.49-0.5-0.4-1.27,0.19-1.64
			c1.3-0.83,2.12-1.99,2.4-3.51c0.4-2.13-0.57-4.3-2.44-5.4c-0.38-0.23-0.52-0.76-0.42-1.1c0.19-0.67,0.97-1.08,1.63-0.65
			c1.85,1.2,2.96,2.88,3.33,5.06c0.04,0.21,0.06,0.43,0.08,0.64C32.21,20.51,32.2,20.68,32.2,20.85z"/>
	</g>
</g>
</svg>
