<svg enable-background="new 0 0 100 100" viewBox="0 0 100 100" xmlns="http://www.w3.org/2000/svg"><g fill="#f19021"><path d="m90.51 27.66c-.99 3.43-3.65 5.23-6.62 6.68-3.56 1.74-7.38 2.63-11.29 3.09-6.28.75-12.52.49-18.66-1.11-2.97-.77-5.84-1.82-8.33-3.66-.95-.7-1.8-1.58-2.58-2.48-.84-.97-1.21-2.18-1.22-3.48 0-.03 0-.05 0-.08-.55-4.21 1.53-6.95 4.98-8.93 3.5-2.02 7.31-3.11 11.26-3.72 7.12-1.08 14.2-.92 21.14 1.12 2.28.67 4.48 1.68 6.59 2.8 2.29 1.21 4.05 3.03 4.73 5.67z"/><path d="m90.51 52.37c-.91 3.02-3.15 4.8-5.79 6.2-3.53 1.88-7.35 2.86-11.28 3.4-6.68.92-13.32.67-19.86-1.09-2.85-.77-5.61-1.8-8-3.58-.93-.69-1.77-1.54-2.52-2.42-.84-.97-1.25-2.17-1.23-3.47.02-1.49-.2-3 .46-4.52.36.51.65.98 1 1.41 1.66 2.01 3.84 3.27 6.2 4.25 5.45 2.27 11.17 3.02 17.02 2.99 5.05-.02 10-.67 14.77-2.39 1.35-.49 2.66-1.11 3.94-1.78 2.12-1.12 3.12-2.11 4.79-4.45.18.43.34.81.5 1.2z"/><path d="m90.51 39.93c-.69 2.67-2.54 4.38-4.79 5.74-3.56 2.15-7.49 3.25-11.55 3.86-7.26 1.08-14.48.89-21.53-1.29-2.12-.65-4.16-1.62-6.12-2.66-3.78-2.01-5.3-5.24-4.64-9.48.08-.5.22-.99.35-1.56 3.49 5.07 8.79 6.65 14.26 7.73 8.1 1.6 16.17 1.32 24.07-1.22 1.62-.52 3.19-1.27 4.7-2.06 1.93-1.01 3.58-2.39 4.72-4.48.2.51.36.92.52 1.32.01 1.38.01 2.74.01 4.1z"/><path d="m90.51 77.58c-.69 2.67-2.53 4.38-4.79 5.75-3.53 2.14-7.44 3.23-11.47 3.84-7.31 1.11-14.57.86-21.7-1.26-3-.89-5.79-2.19-8.22-4.24-2.82-2.39-3.02-6.15-2.04-9.38 3.44 5.01 8.78 6.57 14.27 7.66 7.74 1.54 15.46 1.27 23.07-.92 2.74-.79 5.37-1.86 7.6-3.69 1.04-.85 1.9-1.92 2.86-2.92.1.26.26.66.42 1.06z"/><path d="m90.51 65.3c-.78 2.8-2.77 4.54-5.17 5.92-3.55 2.04-7.44 3.09-11.45 3.67-7.13 1.04-14.19.76-21.14-1.26-2.82-.82-5.48-1.98-7.82-3.8-3.26-2.53-3.75-5.66-2.67-9.85.05.01.12-.01.13.02 1.98 3.29 5.18 4.89 8.61 6.12 5.84 2.08 11.88 2.66 18.04 2.33 4.82-.26 9.53-1.08 13.99-3 2.79-1.2 5.33-2.76 6.97-5.61.19.52.34.94.5 1.36.01 1.38.01 2.74.01 4.1z"/><path d="m37.77 56.13c-8.17.82-16.12.46-23.75-2.77-1.89-.8-3.65-1.85-5.12-3.3-1.47-1.44-2.09-3.15-2.24-5.25-.27-3.78 1.54-6.21 4.5-8.08 3.47-2.19 7.34-3.29 11.33-3.98 4.98-.86 9.98-.9 14.99-.32.08.01.15.04.29.08z"/><path d="m37.81 73.87c.06 2.25-.22 4.54.96 6.75-.99.12-1.84.25-2.69.32-7.23.63-14.32.1-21.15-2.54-2.1-.81-4.05-1.87-5.73-3.4-1.65-1.51-2.64-3.3-2.49-5.62.08-1.24-.14-2.51.52-3.78 1.61 2.79 4.09 4.45 6.91 5.52 2.56.97 5.21 1.78 7.89 2.32 5.08 1.03 10.23 1.08 15.38.44.1-.02.2-.01.4-.01z"/><path d="m37.79 61.54v6.93c-1.6.11-3.19.28-4.78.33-6.58.22-13.01-.51-19.11-3.16-1.96-.85-3.78-1.95-5.27-3.52-1.29-1.36-2.04-2.94-1.94-4.87.06-1 .08-2.01.16-3.01.02-.3.18-.6.31-1 2.47 3.94 6.32 5.58 10.38 6.81 6.38 1.94 12.91 2.24 19.51 1.52.23-.02.44-.02.74-.03z"/></g></svg>