<?xml version="1.0" encoding="utf-8"?>
<!-- Generator: Adobe Illustrator 26.3.1, SVG Export Plug-In . SVG Version: 6.00 Build 0)  -->
<svg version="1.1" id="Layer_1" xmlns="http://www.w3.org/2000/svg" xmlns:xlink="http://www.w3.org/1999/xlink" x="0px" y="0px"
	 viewBox="0 0 46.82 41.88" style="enable-background:new 0 0 46.82 41.88;" xml:space="preserve">
<style type="text/css">
	.st0{fill:#F39200;}
	.st1{fill:#26272B;}
</style>
<g>
<!--	<circle class="st0" cx="23.33" cy="20.88" r="18.01"/>-->
	<g>
		<g>
			<path class="st1" d="M32.95,22.17c0,2.29,0.01,4.58,0,6.87c-0.01,2.42-1.47,3.87-3.89,3.87c-3.83,0-7.67,0-11.5,0
				c-2.37,0-3.85-1.47-3.85-3.84c-0.01-4.67-0.01-9.34,0-14.01c0.01-2.34,1.48-3.78,3.82-3.81c0.17,0,0.35-0.02,0.51,0
				c0.47,0.07,0.71-0.12,0.93-0.54c0.63-1.19,1.67-1.8,3.02-1.86c0.86-0.03,1.71-0.02,2.57-0.01c1.43,0.03,2.5,0.69,3.16,1.95
				c0.19,0.37,0.4,0.47,0.79,0.47c0.55-0.01,1.13-0.02,1.66,0.09c1.68,0.36,2.75,1.77,2.77,3.61
				C32.96,17.37,32.95,19.77,32.95,22.17z M16.07,22.07c0,2.31,0,4.63,0,6.94c0,1.06,0.46,1.52,1.53,1.52
				c3.81,0.01,7.63,0.01,11.44,0c1.07,0,1.53-0.46,1.53-1.52c0-4.63,0-9.25,0-13.88c0-1.03-0.47-1.49-1.49-1.5
				c-0.24,0-0.49-0.05-0.7,0.01c-0.22,0.07-0.5,0.2-0.61,0.39c-0.63,1.16-1.58,1.88-2.88,1.99c-1.04,0.08-2.1,0.08-3.14,0
				c-1.15-0.08-2.13-0.64-2.66-1.67c-0.34-0.66-0.77-0.75-1.41-0.73c-1.19,0.04-1.61,0.44-1.61,1.64
				C16.07,17.53,16.07,19.8,16.07,22.07z M23.33,13.65C23.33,13.65,23.33,13.65,23.33,13.65c0.38,0.01,0.77,0.01,1.15,0.01
				c0.04,0,0.09,0,0.13-0.01c0.67-0.07,1.09-0.52,1.11-1.17c0.01-0.66-0.38-1.18-1.05-1.22c-0.89-0.05-1.79-0.05-2.68,0
				c-0.67,0.04-1.06,0.56-1.04,1.22c0.01,0.65,0.44,1.11,1.11,1.16C22.48,13.67,22.9,13.65,23.33,13.65z"/>
			<path class="st1" d="M22.05,28.1c-0.38,0-0.76,0.02-1.14,0c-0.72-0.04-1.17-0.52-1.17-1.19c0-0.66,0.46-1.17,1.17-1.2
				c0.94-0.03,1.88-0.02,2.82-0.01c0.44,0,0.8-0.11,0.8-0.61c-0.01-0.49-0.38-0.61-0.81-0.62c-0.34,0-0.68,0.01-1.03,0
				c-1.48-0.05-2.68-1.04-2.9-2.42c-0.25-1.51,0.49-2.81,1.91-3.4c0.18-0.08,0.39-0.25,0.46-0.43c0.2-0.57,0.54-0.92,1.16-0.93
				c0.65-0.01,1.03,0.35,1.2,0.95c0.02,0.06,0.05,0.12,0.1,0.24c0.38,0,0.78-0.02,1.18,0c0.69,0.04,1.15,0.54,1.13,1.22
				c-0.02,0.66-0.46,1.12-1.14,1.13c-0.92,0.02-1.84,0.01-2.76,0.01c-0.44,0-0.87,0.08-0.88,0.61c-0.01,0.58,0.44,0.63,0.91,0.63
				c0.51,0,1.03-0.02,1.53,0.08c1.31,0.27,2.22,1.33,2.33,2.63c0.12,1.36-0.61,2.54-1.85,3.08c-0.22,0.1-0.48,0.29-0.55,0.49
				c-0.21,0.57-0.57,0.91-1.17,0.91c-0.61,0-0.99-0.34-1.16-0.92C22.14,28.3,22.11,28.23,22.05,28.1z"/>
		</g>
	</g>
</g>
</svg>
