<svg version="1.1" id="Layer_1" xmlns="http://www.w3.org/2000/svg" x="0" y="0" viewBox="0 0 59.95 59.89" style="enable-background:new 0 0 59.95 59.89" xml:space="preserve"><style>.st0{fill:#f19021}</style><path class="st0" d="M48.26 20.38H12.78c-1.81 0-3.28-1.48-3.28-3.28 0-1.81 1.48-3.28 3.28-3.28h35.48c1.81 0 3.28 1.48 3.28 3.28 0 1.8-1.48 3.28-3.28 3.28zM48.26 32.04H12.78c-1.81 0-3.28-1.48-3.28-3.28 0-1.81 1.48-3.28 3.28-3.28h35.48c1.81 0 3.28 1.48 3.28 3.28 0 1.8-1.48 3.28-3.28 3.28zM32.42 44.13H12.54c-1.82 0-3.32-1.49-3.32-3.32v-.37c0-1.82 1.49-3.32 3.32-3.32h19.88c1.82 0 3.32 1.49 3.32 3.32v.37c-.01 1.82-1.5 3.32-3.32 3.32z"/></svg>