<svg version="1.1" id="Layer_1" xmlns="http://www.w3.org/2000/svg" x="0" y="0" viewBox="0 0 84.84 88.08" style="enable-background:new 0 0 84.84 88.08" xml:space="preserve">
    <path class="st0" d="M80.84 59.96c-.1 1.36-.06 2.65-.3 3.88-1.03 5.17-7.23 7.81-11.72 5.04-.95-.59-1.95-1.13-2.84-1.8-1.07-.81-2.08-1.7-3.06-2.62-2-1.88-3.99-3.78-5.94-5.71-.88-.86-1.74-1.76-2.5-2.73-1.16-1.47-2.64-2.12-4.48-2.1-3.46.03-6.92.04-10.37.04-2 0-4 .02-6-.05-1.69-.06-3 .59-4.18 1.78-3 3.03-6.01 6.04-9.11 8.97-1.4 1.33-2.96 2.52-4.54 3.64a9.038 9.038 0 0 1-4.92 1.68c-3.77.16-6.93-2.35-7.71-6.15-.46-2.25-.46-4.51-.22-6.8.41-3.94.69-7.89 1.11-11.83.44-4.18.9-8.36 1.5-12.52.49-3.42 2.37-6.14 4.88-8.42 3.56-3.23 7.73-4.93 12.57-4.96 8.75-.05 17.5-.16 26.24-.17 3.96 0 7.92.15 11.88.26 8.63.25 15.12 5.68 16.8 14.17.42 2.12.54 4.3.79 6.45.4 3.45.81 6.9 1.18 10.36.36 3.23.64 6.45.94 9.59zM23.42 45.9c3.26 0 6.11-1.13 8.27-3.73 3.7-4.46 2.83-10.8-1.87-13.87-4.53-2.96-10.63-2.41-14.53 1.34-1.99 1.92-3.08 4.19-2.6 7.04.42 2.51 1.31 4.79 3.19 6.57 2.09 1.98 4.67 2.62 7.54 2.65zm27.12-9.81c.04.31.05.63.13.94.36 1.38 1.46 1.8 2.69 2 1.68.27 3.19-.9 3.39-2.57.22-1.87-.7-3-2.59-3.17a5.37 5.37 0 0 0-1.06.03c-1.66.17-2.51 1.12-2.56 2.77zm16.02-2.92c-.43.1-.88.15-1.3.3-1.19.44-1.86 1.49-1.8 2.74.07 1.4.76 2.37 1.97 2.68.95.24 1.9.17 2.79-.23.98-.44 1.47-1.24 1.48-2.31.03-1.86-1.26-3.13-3.14-3.18zm-6.21 11.76c1.1-.03 2.08-.32 2.55-1.4.49-1.1.49-2.23-.21-3.26-.67-.97-1.7-1.12-2.79-1.05-.11.01-.22.03-.33.04-1.45.2-2.43 1.23-2.47 2.6-.05 1.59.74 2.62 2.26 2.93.32.07.66.09.99.14zm-.32-12.04c.37-.04.75-.06 1.11-.14 1.33-.27 2.09-1.14 2.14-2.43.06-1.45-.57-2.4-1.85-2.77-1.05-.31-2.07-.17-3.06.27-.63.29-1.02.78-1.19 1.46-.51 2.11.65 3.57 2.85 3.61z" style="fill:#f19021"/>
    <path class="st0" d="M28.1 34.2c.52.05 1.04.06 1.55.15.49.09.91.39.98.89.09.59.13 1.23 0 1.81-.16.75-.85.95-1.53.98-.56.03-1.12-.04-1.68-.02-1.69.06-2.42.88-2.35 2.58.02.39.02.79-.05 1.17-.09.54-.44.95-.98 1.02-.56.07-1.16.09-1.71-.01-.65-.12-.97-.66-.99-1.44-.01-.56.05-1.12 0-1.68-.09-1.09-.7-1.66-1.78-1.7-.52-.02-1.04.08-1.56.09-.7.02-1.38-.1-1.73-.79-.39-.77-.42-1.59.01-2.37.28-.51.81-.63 1.35-.65.6-.02 1.2.04 1.79 0 1.25-.08 1.9-.76 1.94-2.01.02-.52-.04-1.05-.01-1.57.05-.99.57-1.53 1.52-1.6 1.3-.1 2.01.34 2.2 1.38.06.31.07.63.04.95-.18 2.13.63 2.98 2.77 2.89.07 0 .15-.01.22-.01-.01-.02 0-.04 0-.06z" style="fill:#f19021"/>
</svg>
