<svg version="1.1" id="Layer_1" xmlns="http://www.w3.org/2000/svg" x="0" y="0" viewBox="0 0 84.84 88.08" style="enable-background:new 0 0 84.84 88.08" xml:space="preserve">
    <path class="st0" d="M59.65 51.79v6.68h10.08c.01-.29.04-.57.04-.85 0-12.2 0-24.4.01-36.6 0-.52-.13-.84-.6-1.16-2.29-1.52-3.31-4.48-2.55-7.21.74-2.69 3.21-4.75 5.9-4.92 3.22-.2 5.95 1.55 7 4.5 1.03 2.91.03 5.86-2.62 7.81-.22.16-.36.56-.36.85-.03 1.77-.02 3.55-.02 5.32v31.91c0 3.37-1.84 6-4.83 6.84-.75.21-1.56.27-2.35.28-2.91.03-5.82.01-8.73.01h-.98v10.12H8.84V51.79c-.39-.08-.69-.13-1-.21-1.31-.33-2.1-1.18-2.33-2.51-.08-.44-.1-.89-.1-1.34-.01-9.76 0-19.53 0-29.29v-.4c.03-2.33 1.28-3.59 3.6-3.6 3.94-.02 7.88-.02 11.83.01.62 0 .99-.19 1.36-.69 6.04-8.1 18.03-8.06 24.08.07.34.46.67.63 1.24.62 3.86-.02 7.73-.01 11.59-.01 2.73 0 3.9 1.18 3.9 3.93v29.45c-.03 2.52-.88 3.55-3.36 3.97zm-47.4-30.51v23.61h43.89V21.28H12.25zm40.55 30.5H15.62v16.85H52.8V51.78z" style="fill:#f19021"/>
    <path class="st0" d="M53.22 24.29h-10.9v4.17h6.45l-6.75 13.51h.64c.31 0 .6 0 .88-.01.64-.01 1.24-.01 1.83.02h.1c.57 0 .94-.25 1.23-.83.39-.79.78-1.59 1.17-2.38 1.48-3.02 3.01-6.13 4.62-9.14.71-1.33.7-2.66.69-3.94 0-.33-.01-.67 0-1l.04-.4zM39.73 24.28H28.79v4.13h6.46l-6.76 13.56h.64c.31 0 .6 0 .89-.01.62-.01 1.21-.01 1.78.02h.13c.74 0 1.06-.43 1.27-.86 1.94-3.92 3.94-7.97 6.02-12.04.53-1.03.5-2.05.46-3.03-.02-.46-.03-.9.01-1.34l.04-.43zM26.15 24.29H15.22v4.15h6.47l-6.75 13.53h.64c.3 0 .58 0 .85-.01.58-.01 1.09-.02 1.59.02.08.01.15.01.22.01.7 0 1.14-.31 1.49-1.02 1.97-4.02 3.96-8.02 5.94-11.89.52-1.03.48-2.04.44-3.01-.02-.47-.04-.91 0-1.35l.04-.43zM45.99 65.23H22.41v-6.66h23.58v6.66z" style="fill:#f19021"/>
</svg>
