<svg xmlns="http://www.w3.org/2000/svg" viewBox="0 0 84.84 88.08" style="enable-background:new 0 0 84.84 88.08" xml:space="preserve">
    <path d="M9.54 46.01c0-9.57 0-19.14.01-28.71.01-6.37 3.07-9.41 9.48-9.41 15.16 0 30.32 0 45.49.02 5.1.01 8.54 3.34 8.54 8.39.03 19.84.02 39.69 0 59.53 0 3.2-1.35 5.19-4.1 6.3-2.47.99-4.96.31-7.15-1.88-5.77-5.77-11.55-11.52-17.33-17.27-2.22-2.2-4.09-2.21-6.3-.02-5.78 5.74-11.55 11.5-17.33 17.24-2.49 2.47-4.97 3.03-7.67 1.72-2.52-1.22-3.64-3.29-3.64-6.05 0-9.96-.01-19.91 0-29.86zm21.56 1.08c-.11 2.01 1.07 2.83 2.84 1.99 1.85-.88 3.71-1.78 5.44-2.87 1.38-.87 2.52-.82 3.88.01 1.69 1.03 3.48 1.92 5.27 2.78 1.97.96 3.19.13 2.93-2.04-.25-2.16-.63-4.32-1.08-6.45-.24-1.14-.01-1.96.84-2.74 1.6-1.48 3.13-3.04 4.69-4.57.62-.61 1.13-1.3.84-2.21-.29-.91-1.05-1.18-1.94-1.31-2.03-.28-4.05-.73-6.09-.9-1.48-.12-2.31-.73-2.88-2.08-.74-1.77-1.65-3.47-2.5-5.19-.43-.87-.88-1.77-2.06-1.75-1.08.02-1.52.84-1.93 1.65-.86 1.72-1.79 3.41-2.53 5.18-.59 1.4-1.43 2.1-2.99 2.2-1.85.12-3.69.48-5.53.77-1.01.16-2.09.24-2.44 1.5-.34 1.25.58 1.87 1.3 2.58 1.37 1.35 2.73 2.71 4.16 3.99.86.77 1.13 1.59.91 2.73-.43 2.29-.77 4.57-1.13 6.73z" style="fill:#f19021"/>
</svg>
