<svg version="1.1" id="Layer_1" xmlns="http://www.w3.org/2000/svg" x="0" y="0" viewBox="0 0 84.84 88.08" style="enable-background:new 0 0 84.84 88.08" xml:space="preserve">
    <path class="st0" d="M17.28 54.54c.61-1.38 1.12-2.69 1.77-3.94 6.49-12.5 15.62-22.7 27.53-30.48 1.21-.79 2.5-1.45 3.76-2.17.45-.26.79-.23 1.18.17C57.4 24.09 63.3 30.06 69.22 36c.51.52.19.89-.05 1.3-2.82 4.83-6.32 9.15-10.31 13.09-5.81 5.75-12.26 10.68-19.55 14.5-2.48 1.3-5.13 2.3-7.7 3.45-.48.21-.82.11-1.19-.26-4.21-4.28-8.44-8.54-12.65-12.81-.2-.21-.33-.49-.49-.73zm39.26-16.01c.03-4.48-3.62-8.11-8.17-8.12-4.48-.02-8.16 3.58-8.19 8.03-.04 4.43 3.66 8.06 8.22 8.09 4.42.02 8.11-3.6 8.14-8zM71.09 33.74 53.86 16.3c.58-.25 1.23-.56 1.89-.83 6.37-2.6 12.99-4.33 19.82-5.3.65-.09 1.32-.13 1.97-.23.55-.09.74.13.66.64-.27 1.59-.48 3.19-.82 4.76a78.513 78.513 0 0 1-4.55 14.56c-.56 1.31-1.17 2.59-1.74 3.84zM14.66 77.89c.37-1.07.75-2.13 1.16-3.29-2.73.99-5.35 1.95-7.98 2.9l-.21-.18c.71-2.69 1.92-5.21 3.16-7.93-1.31.4-2.4.73-3.48 1.07l-.19-.16c.22-.64.4-1.3.68-1.92.99-2.2 1.89-4.46 3.06-6.57 1.1-1.97 3.78-2.81 5.63-2 .47.21.91.54 1.27.9 2.27 2.25 4.52 4.53 6.76 6.81 2.2 2.23 1.88 5.48-.87 7.07-1.71.99-3.63 1.67-5.48 2.41-1.09.44-2.23.73-3.35 1.1a.834.834 0 0 0-.16-.21zM26.62 34.22c-.23.32-.36.54-.52.73-4.46 5.42-8.36 11.18-10.91 17.72-.57 1.46-1.3 2.14-2.88 2.27-2.16.18-4.29.6-6.43.91-.1.01-.2-.02-.43-.05.12-.33.19-.61.31-.88 2.33-5.43 4.77-10.81 7.91-15.85 1.17-1.87 2.43-3.66 4.54-4.66 2.71-1.28 5.46-1.39 8.41-.19zM29.45 80.15c.21-1.29.36-2.41.57-3.52.27-1.48.63-2.95.85-4.44.1-.7.49-.93 1.06-1.17 2.98-1.26 6-2.43 8.9-3.86 3.78-1.87 7.23-4.28 10.6-6.8.15-.11.3-.21.63-.44.21.64.48 1.19.57 1.76.65 4.13-.6 7.48-4.24 9.83-3.61 2.33-7.54 4.07-11.49 5.74-2.13.9-4.3 1.73-6.45 2.59-.26.11-.54.17-1 .31z" style="fill:#f19021"/>
</svg>
