<svg xmlns="http://www.w3.org/2000/svg" viewBox="0 0 84.84 88.08" style="enable-background:new 0 0 84.84 88.08" xml:space="preserve">
    <path d="M30.37 49.54c-3.14 4.2-4.2 8.65-3.44 13.48.74 4.73 3.38 8.52 6.83 12.17-6.49-.2-11.51-2.6-15.31-7.41-6.33-8-6.97-18.68-1.36-28.08 2.07-3.47 4.72-6.66 7.46-9.65 4.1-4.48 6.96-9.35 6.96-15.6 0-1.96 1.73-2.92 3.46-1.95 4.72 2.63 9.1 5.72 12.48 10 4.96 6.28 5.11 13.31 2.98 20.63-.17.58-.38 1.15-.56 1.73-.01.04.03.11.05.16 3.34-.55 6.92-3.51 8.31-7.36.77-2.14.89-4.51 1.49-6.73.21-.77.83-1.71 1.5-2 .54-.23 1.75.2 2.14.73 7.63 10.24 10.43 21.55 6.52 33.92-2.1 6.65-6.96 10.7-14 11.48-5.56.62-10.4-1.59-14.69-4.96-6.02-4.72-8.99-11.21-10.4-18.54-.14-.57-.25-1.16-.42-2.02z" style="fill:#f19021"/>
</svg>
