<?xml version="1.0" encoding="utf-8"?>
<!-- Generator: Adobe Illustrator 26.3.1, SVG Export Plug-In . SVG Version: 6.00 Build 0)  -->
<svg version="1.1" id="Layer_1" xmlns="http://www.w3.org/2000/svg" xmlns:xlink="http://www.w3.org/1999/xlink" x="0px" y="0px"
	 viewBox="0 0 325.06 297.21" style="enable-background:new 0 0 325.06 297.21;" xml:space="preserve">
<style type="text/css">
	.st0{fill:#F19021;}
</style>
<g>
	<path class="st0" d="M220.5,39.36c2.87,10.33,5.75,20.58,8.57,30.85c1.49,5.44,1.46,5.33,7.03,6.12c10,1.41,19.97,2.99,29.95,4.5
		c0.41,0.06,0.81,0.15,1.5,0.28c-2.58,11.92-5.14,23.72-7.76,35.82c-66.9-6.21-133.77-6.32-200.82-0.39
		c-2.58-11.89-5.12-23.57-7.7-35.47c4.69-0.75,9.23-1.51,13.78-2.21c7.34-1.13,14.69-2.19,22.03-3.38c0.61-0.1,1.42-0.85,1.59-1.45
		c2.79-9.77,5.48-19.56,8.2-29.35c0.47-1.68,0.93-3.37,1.46-5.32c3.72,1.26,7.41,2.48,11.07,3.75c7.55,2.62,15.09,5.26,22.62,7.93
		c1.29,0.46,2.12,0.2,3.08-0.83c7.69-8.28,15.46-16.49,23.19-24.73c0.33-0.36,0.6-0.78,1.01-1.31c3.61,3.83,7.03,7.44,10.44,11.06
		c4.66,4.96,9.38,9.88,13.94,14.93c1.21,1.34,2.21,1.18,3.64,0.68c10.77-3.78,21.56-7.49,32.35-11.22
		C219.93,39.53,220.18,39.46,220.5,39.36z"/>
	<path class="st0" d="M190.8,283.08c-5.74-3.71-11.27-7.28-16.8-10.86c-4.3-2.78-8.63-5.53-12.87-8.4
		c-1.24-0.84-2.12-0.86-3.38-0.03c-9.39,6.16-18.83,12.24-28.25,18.34c-0.41,0.27-0.83,0.52-1.48,0.93c-0.44-0.73-0.89-1.4-1.28-2.1
		c-5.4-9.6-10.82-19.19-16.17-28.81c-0.71-1.28-1.39-1.66-2.94-1.5c-9.63,0.98-19.29,1.78-28.93,2.65
		c-2.01,0.18-4.02,0.39-6.31,0.62c-0.14-2.51-0.32-4.79-0.39-7.09c-0.29-9.41-0.58-18.81-0.76-28.22c-0.03-1.66-0.59-2.42-2.13-3.04
		c-10.85-4.39-21.65-8.89-32.56-13.39c1.39-2.84,2.67-5.64,4.14-8.34c0.28-0.52,1.29-1.01,1.91-0.95
		c8.66,0.81,17.29,2.09,25.96,2.54c24.52,1.27,49.05,2.48,73.59,3.19c15.15,0.44,30.33,0.19,45.49-0.25
		c16.55-0.48,33.1-1.33,49.62-2.4c13.36-0.87,26.69-2.31,40.27-3.53c1.53,3.12,3.12,6.36,4.78,9.74
		c-6.43,2.65-12.71,5.24-18.99,7.83c-4.6,1.9-9.18,3.86-13.81,5.66c-1.4,0.54-1.88,1.23-1.91,2.74
		c-0.23,11.09-0.57,22.18-0.88,33.27c-0.02,0.62-0.11,1.24-0.18,2.01c-1.06,0-2.03,0.07-2.98-0.01
		c-10.83-0.98-21.67-1.93-32.49-3.04c-1.49-0.15-2.08,0.21-2.76,1.43c-5.41,9.75-10.89,19.46-16.36,29.19
		C191.65,281.81,191.29,282.32,190.8,283.08z M184.86,228.03c-4.09-0.47-7.68-0.94-11.28-1.27c-6.47-0.58-6.47-0.54-9.19-6.36
		c-0.12-0.25-0.19-0.53-0.31-0.78c-1.49-3.21-2.98-6.43-4.61-9.95c-0.51,1-0.86,1.6-1.15,2.23c-1.9,4.14-3.82,8.27-5.67,12.43
		c-0.47,1.06-1.01,1.68-2.28,1.76c-2.02,0.12-4.04,0.46-6.05,0.71c-3.29,0.4-6.59,0.8-10.36,1.25c4.24,3.91,8.06,7.5,11.97,11
		c0.96,0.86,1.27,1.67,1,2.91c-0.82,3.69-1.56,7.4-2.3,11.11c-0.29,1.45-0.5,2.92-0.83,4.83c5.04-2.81,9.65-5.3,14.18-7.95
		c1.16-0.68,1.95-0.58,3.03,0.05c4.12,2.4,8.3,4.7,12.46,7.03c0.43,0.24,0.92,0.37,1.67,0.67c-1.07-5.38-2-10.39-3.11-15.37
		c-0.34-1.5-0.08-2.46,1.09-3.46c2.56-2.19,5-4.52,7.47-6.81C181.9,230.86,183.19,229.61,184.86,228.03z"/>
	<path class="st0" d="M74.57,70.14c-4.02-2.21-7.69-4.2-11.35-6.24c-2.14-1.19-4.21-2.54-6.41-3.61c-0.71-0.34-1.9-0.34-2.59,0.04
		c-5.18,2.8-10.3,5.73-15.43,8.61c-0.66,0.37-1.34,0.71-2.37,1.25c0.83-4.21,1.58-8.03,2.34-11.86c0.15-0.76,0.31-1.51,0.45-2.27
		c0.45-2.46,1.78-5.23,1.08-7.31c-0.71-2.11-3.42-3.55-5.28-5.27c-3.38-3.13-6.78-6.24-10.49-9.64c5.28-0.62,10.12-1.18,14.97-1.75
		c0.77-0.09,1.55-0.4,2.29-0.3c3.91,0.52,5.43-1.79,6.73-5c2.07-5.11,4.54-10.05,7.03-15.47c2.3,4.98,4.85,9.44,6.43,14.23
		c1.59,4.84,4.49,6.47,9.31,6.61c4.96,0.14,9.89,1.04,15.11,1.64c-0.48,0.52-0.81,0.92-1.18,1.26c-4.38,4.05-8.73,8.14-13.19,12.1
		c-1.22,1.08-1.59,2.13-1.26,3.66c1.22,5.68,2.37,11.37,3.54,17.07C74.41,68.5,74.44,69.12,74.57,70.14z"/>
	<path class="st0" d="M263.87,11.3c2.9,6.32,5.64,12.14,8.22,18.04c0.69,1.59,1.65,2.14,3.3,2.31c6.35,0.63,12.68,1.41,19.02,2.13
		c0.21,0.24,0.41,0.47,0.62,0.71c-0.56,0.26-1.23,0.4-1.67,0.8c-4.47,4.06-8.88,8.18-13.36,12.23c-1,0.91-1.24,1.73-0.94,3.11
		c1.39,6.42,2.61,12.88,3.96,19.65c-5.74-3.22-11.26-6.23-16.67-9.42c-1.77-1.04-3.08-1.15-4.91-0.03c-4.91,2.99-9.99,5.7-15,8.51
		c-0.47,0.26-0.97,0.46-1.69,0.8c1.34-6.68,2.57-13.13,3.96-19.55c0.29-1.37,0.04-2.19-0.98-3.1c-4.18-3.75-8.29-7.57-12.43-11.37
		c-0.71-0.65-1.41-1.32-2.42-2.26c5.21-0.61,10.04-1.18,14.88-1.75c0.7-0.08,1.41-0.35,2.08-0.26c4.21,0.59,5.78-2,7.16-5.37
		C259.02,21.49,261.42,16.66,263.87,11.3z"/>
	<path class="st0" d="M176.21,182.09c-4.5,0-8.63,0.05-12.77-0.06c-0.49-0.01-1.19-0.83-1.41-1.42c-2.15-5.85-4.22-11.73-6.32-17.6
		c-0.26-0.71-0.57-1.41-0.99-2.46c-1.98,3-3.83,5.71-5.57,8.48c-0.3,0.47-0.19,1.23-0.19,1.85c-0.01,3.64-0.01,7.28-0.01,11.05
		c-3.79,0-7.39,0-11.05,0c0-17.45,0-34.74,0-52.23c3.7,0,7.23,0,10.97,0c0,6.21,0,12.43,0,19.3c0.7-0.87,1.05-1.22,1.3-1.63
		c3.28-5.48,6.57-10.95,9.78-16.46c0.6-1.04,1.22-1.48,2.45-1.44c3.65,0.12,7.3,0.1,10.95,0.15c0.67,0.01,1.34,0.1,2.29,0.18
		c-4.12,6.1-8.03,11.99-12.07,17.79c-0.92,1.32-1,2.31-0.35,3.79c4.24,9.7,8.36,19.44,12.51,29.18
		C175.9,180.91,175.98,181.31,176.21,182.09z"/>
	<path class="st0" d="M253.38,154.32c-0.18,6.78-0.83,12.16-3.78,17.03c-5.42,8.94-16.01,10.29-23.06,7.76
		c-4.73-1.7-7.38-5.58-8.89-10.08c-2.93-8.77-3.03-17.72,0.05-26.44c3.82-10.8,12.8-12.94,22.15-9.97
		c7.08,2.25,10.86,7.66,12.51,14.64C253.01,149.95,253.17,152.78,253.38,154.32z M226.73,155.17c0.12,2.1,0.16,3.72,0.33,5.32
		c0.11,1.04,0.31,2.09,0.62,3.09c1.16,3.81,3.48,5.82,6.58,5.78c3.33-0.04,6.05-2.18,6.99-5.94c1.23-4.9,1.39-9.87,0.11-14.8
		c-1.02-3.91-4.04-6.33-7.49-6.2c-3.09,0.11-5.63,2.6-6.4,6.54C227.04,151.16,226.93,153.41,226.73,155.17z"/>
	<path class="st0" d="M131.78,145.04c-3.4,1.11-6.57,2.14-9.69,3.15c-0.72-1.56-1.21-3.04-2.03-4.32c-2.17-3.38-6.51-3.67-9.09-0.58
		c-0.92,1.1-1.72,2.46-2.07,3.84c-1.55,6.08-1.5,12.23,0.11,18.29c0.82,3.09,3.12,4.83,5.82,4.94c2.44,0.11,4.31-0.88,5.31-3.04
		c0.96-2.07,1.59-4.29,2.44-6.64c3.06,1.34,6.24,2.73,9.75,4.26c-0.95,2.9-1.6,5.78-2.8,8.42c-3.77,8.25-9.47,9.67-17.21,8.5
		c-8.15-1.24-12.11-7.09-14.09-14.21c-2.42-8.65-2.4-17.49,0.68-26.08c3.3-9.22,11.99-13.89,21.27-11.64
		c5.44,1.32,8.16,5.35,10.05,10.17C130.81,141.59,131.19,143.16,131.78,145.04z"/>
	<path class="st0" d="M180.27,129.99c2.71,0,5.36-0.04,8.01,0.01c3.3,0.06,6.59,0.23,9.89,0.31c6.56,0.15,10.59,3.12,12.13,9.51
		c1.15,4.76,1.12,9.59-0.52,14.32c-1.76,5.07-5.38,7.71-10.66,8.12c-1.89,0.15-3.8,0.23-5.68,0.12c-1.84-0.11-2.22,0.69-2.18,2.35
		c0.09,4.77,0.03,9.55,0.03,14.32c0,0.76,0,1.51,0,2.49c-3.77,0-7.31,0-11.02,0C180.27,164.43,180.27,147.27,180.27,129.99z
		 M191.28,146.08c0,0,0.01,0,0.01,0c0,1.54-0.07,3.08,0.04,4.61c0.03,0.48,0.55,1.31,0.87,1.31c2.41,0.06,5.06,0.49,6.75-1.82
		c1.68-2.3,1.55-4.87,0.31-7.34c-0.92-1.83-4.92-3.34-7.06-2.25c-0.75,0.38-0.67,2.48-0.9,3.81
		C191.2,144.95,191.28,145.52,191.28,146.08z"/>
	<path class="st0" d="M55.66,177.34c1.03-3.25,2.05-6.36,3.01-9.49c3.39-11.04,6.79-22.08,10.09-33.15c0.4-1.33,0.99-1.77,2.3-1.83
		c3.01-0.14,6.01-0.49,9.02-0.6c0.59-0.02,1.62,0.57,1.76,1.07c4.42,15.33,8.75,30.69,13.09,46.05c0.05,0.19,0.02,0.41,0.05,0.92
		c-2.59-0.14-5.12-0.37-7.66-0.4c-2.69-0.02-4.19-0.6-4.67-3.89c-0.64-4.43-1.11-4.35-5.77-4.55c-2.17-0.09-4.34-0.22-6.51-0.38
		c-1.07-0.08-1.74,0.18-1.9,1.38c-0.12,0.9-0.45,1.76-0.65,2.65c-0.77,3.46-0.8,3.49-4.23,3.1
		C61.03,177.93,58.46,177.65,55.66,177.34z M79.3,161.31c-1.28-5.28-2.53-10.49-3.79-15.69c-0.18,0.03-0.37,0.05-0.55,0.08
		c-1.21,5.12-2.42,10.25-3.68,15.61C74.13,161.31,76.57,161.31,79.3,161.31z"/>
	<path class="st0" d="M289.72,146.52c-3.83-0.22-7.44-0.43-11.35-0.66c0,9.89,0,19.6,0,29.44c-3.82,0.43-7.36,0.82-11.2,1.25
		c0-10.41,0-20.75,0-31.66c-3.28,0-6.29-0.07-9.29,0.03c-1.82,0.06-2.47-0.56-2.35-2.44c0.16-2.72,0.04-5.45,0.04-8.44
		c3.98,0.34,7.73,0.6,11.47,1.01c6.97,0.76,13.92,1.66,20.9,2.38c1.48,0.15,1.88,0.68,1.82,2.07
		C289.65,141.79,289.72,144.1,289.72,146.52z"/>
	<path class="st0" d="M34.1,160.65c0.41,1.67,0.66,3.04,1.1,4.36c0.5,1.51,1.72,2.21,3.27,2.14c1.51-0.07,2.51-0.94,2.75-2.44
		c0.28-1.72,0.58-3.46,0.6-5.19c0.07-7.3,0.06-14.59,0-21.89c-0.01-1.58,0.41-2.24,2.09-2.31c2.93-0.14,5.84-0.53,8.85-0.82
		c0.08,0.54,0.19,0.94,0.19,1.34c-0.01,8.77,0.03,17.54-0.09,26.31c-0.03,2.15-0.41,4.33-0.94,6.42c-1.18,4.65-5.37,7.98-10.18,7.95
		c-5.66-0.04-11.08-0.97-14.88-5.86c-1.96-2.52-2.77-5.43-2.96-8.88C27.36,161.4,30.73,161.03,34.1,160.65z"/>
</g>
</svg>
