<svg xmlns="http://www.w3.org/2000/svg" viewBox="0 0 84.84 88.08" style="enable-background:new 0 0 84.84 88.08" xml:space="preserve">
    <path d="M42.42 5.09c-21.09 0-38.24 17.16-38.24 38.24s17.15 38.24 38.24 38.24 38.24-17.16 38.24-38.24S63.5 5.09 42.42 5.09zm28.39 57.95H58.87l-4.54-5.06-.5-9.49 6.14-7.57 7.57-3.7 9.44 6.86c-.16 7.03-2.4 13.55-6.17 18.96zm-44.84 0H14.02a34.372 34.372 0 0 1-6.16-18.95l9.44-6.87 7.57 3.7 6.14 7.57-.5 9.49-4.54 5.06zm43.96-40.61-3.69 11.38-7.61 3.71-9.15-2.45L44.24 27v-9.35l9.57-6.96a34.799 34.799 0 0 1 16.12 11.74zM31.03 10.7l9.57 6.96V27l-5.23 8.07-9.15 2.45-7.61-3.72-3.69-11.37c4.06-5.35 9.64-9.47 16.11-11.73zm1.43 65.74-3.63-11.15 4.52-5.03 8.88-3.47 9.25 3.48L56 65.29l-3.62 11.15c-3.16.95-6.49 1.48-9.96 1.48-3.46 0-6.8-.52-9.96-1.48z" style="fill:#f19021"/>
</svg>
