<svg version="1.1" id="Layer_1" xmlns="http://www.w3.org/2000/svg" x="0" y="0" viewBox="0 0 84.84 88.08" style="enable-background:new 0 0 84.84 88.08" xml:space="preserve" >
    <path class="st0" d="M28.56 39.6c1.34-8.35 2.68-16.7 4.04-25.05.23-1.39.52-2.78.84-4.15.32-1.35 1.75-2.34 3.15-2.17 1.68.2 3.35.43 5.02.7 11.19 1.79 22.37 3.59 33.56 5.4 1.13.18 2.26.43 3.38.71 1.51.38 2.33 1.55 2.17 3.11-.18 1.69-.36 3.39-.64 5.07-2.81 17.4-5.63 34.8-8.46 52.19-.25 1.55-1.46 2.71-3 2.94-.13.02-.27-.01-.41-.03-13.93-2.24-27.86-4.48-41.79-6.74-.39-.06-.78-.35-1.09-.62-.95-.81-1.48-1.78-1.27-3.11 1.04-6.53 2.04-13.08 3.06-19.61.45-2.88.92-5.76 1.39-8.64.01-.01.03 0 .05 0zm26.35-11.08c-.09 0-.18-.01-.27-.01-.2.19-.38.41-.6.57-2.07 1.48-4.15 2.96-6.23 4.43-1.48 1.04-3.04 1.98-4.44 3.12-2.58 2.09-3.69 4.88-3.41 8.19.19 2.13 1.14 3.88 3.13 4.76 1.97.86 4.04 1.01 6.07.03.24-.12.49-.22.87-.38-1.02 2.54-2.35 4.75-3.73 6.96 2.65.43 5.23.84 7.86 1.26-.73-2.56-1.2-5.11-1.41-7.72.08.01.12.01.14.02.12.1.24.19.34.31 1.36 1.47 3.11 2 5.03 2.16 1.52.12 2.84-.37 3.91-1.4 2.01-1.92 2.55-4.4 2.31-7.05-.17-1.9-1.02-3.58-2.17-5.11-2.31-3.06-4.61-6.13-6.91-9.21-.2-.28-.32-.62-.49-.93zm-16.42-5.17c.06-.02.08-.03.09-.03.06.02.12.03.17.06.48.24 1 .33 1.43-.04.47-.41.59-1.05.33-1.57-.45-.9-1.05-1.73-1.54-2.51-.66.44-1.22.78-1.75 1.17-.32.23-.6.52-.86.82-.35.41-.38.9-.14 1.38.24.47.65.62 1.15.59.14-.01.28.01.51.02-.21.41-.39.73-.55 1.06.46.07.87.14 1.34.22-.08-.45-.13-.82-.18-1.17zm27.85 39.86c-.18-.09-.25-.12-.31-.15-1.05-.51-1.86.02-1.79 1.19.01.24.06.51.18.7.48.78 1 1.54 1.53 2.36.78-.62 1.49-1.17 2.18-1.75.18-.15.34-.36.46-.57.26-.42.2-.86-.05-1.26-.23-.38-.58-.52-1.02-.5-.16.01-.32-.01-.59-.01.21-.4.38-.73.55-1.06-.46-.07-.87-.14-1.33-.21.08.43.13.8.19 1.26zM41.31 18.29c-.21-.7-.42-1.35-.59-2-.21-.83-.37-1.68-.59-2.51-.05-.19-.22-.35-.33-.52-.16.12-.38.21-.49.37-.33.48-.61.99-.93 1.48-.51.76-1.05 1.5-1.56 2.25-.04.06-.06.18-.02.24.15.24 1.09.28 1.34.05-.09-.12-.18-.24-.27-.35.35-.85.35-.85 1.2-.67.24.05.47.13.72.17.44.07.54.39.51.74-.02.17-.19.32-.29.48.33.32.95.43 1.3.27zm26.12 50.38c0-.01 0-.01 0 0-.07-.02-.15-.05-.23-.04-.16.01-.32.04-.48.06.06.13.11.25.17.38.1.22-.32.9-.56.86-.5-.09-.99-.2-1.48-.34-.32-.1-.46-.64-.28-.89.29-.4.28-.43-.22-.53-.23-.04-.45-.08-.68-.09-.21 0-.32.08-.2.32.17.33.37.66.46 1.02.25 1.03.43 2.07.68 3.1.06.24.26.45.39.68.19-.16.43-.3.56-.5.62-.95 1.2-1.93 1.8-2.89.15-.23.34-.43.51-.64.06-.08.12-.16.19-.23-.09-.07-.17-.16-.28-.2-.1-.05-.23-.05-.35-.07z" style="fill:#f19021"/>
    <path class="st0" d="M30.31 13.04c-.05.5-.07.94-.14 1.38-.97 6.08-1.94 12.16-2.92 18.23-.07.45-.18.91-.33 1.34-.06.16-.27.37-.42.38-2.4.21-4.24 1.23-5.13 3.56-1.07 2.8-.67 5.48.98 7.94.56.83 1.32 1.53 2.03 2.24.26.26.34.48.29.83-.99 6.28-1.96 12.56-2.97 18.83-.13.81-.06 1.57.29 2.28.37.75.81 1.48 1.31 2.15.61.8 1.44 1.32 2.46 1.5 3.78.67 7.56 1.35 11.33 2.02.88.16 1.76.3 2.63.45.13.02.25.06.38.18l-2.02.3c-6.26.9-12.51 1.79-18.77 2.68-.39.06-.79.07-1.19.12-1.82.24-3.45-1.26-3.7-2.99-.52-3.63-1.09-7.25-1.62-10.88-1.98-13.52-3.97-27.04-5.92-40.57-.28-1.97-.45-3.96-.6-5.95-.09-1.1.72-2.26 1.83-2.55 1.3-.35 2.63-.62 3.96-.82 5.9-.89 11.81-1.74 17.71-2.6.15-.02.3-.02.53-.05zm-16.08 17.2c.34-.44.66-.8.92-1.19.31-.47.62-.95.84-1.47.25-.58-.01-1.27-.52-1.57-.47-.28-.97-.17-1.45.3-.1.1-.21.21-.31.32-.14-.1-.24-.19-.36-.26-.65-.38-1.67.05-1.76.75-.07.58.04 1.11.52 1.49.68.54 1.38 1.07 2.12 1.63zm-1.81-5.4c-.04-.01-.09-.03-.13-.04-.02-.27-.13-.58-.04-.8.07-.18.37-.31.6-.38.27-.09.57-.1.86-.15.29-.05.55-.09.73.26.17.32.19.54-.12.75.55.31 1.12.23 1.42-.12-.24-.31-.5-.59-.69-.91-.63-1.04-1.23-2.09-1.85-3.13-.23-.39-.49-.38-.69.03-.08.16-.13.34-.18.52-.42 1.38-.45 2.87-1.16 4.16.49.22.89.15 1.25-.19zM39.71 14.2c.1.58.21 1.15.28 1.73.01.1-.22.31-.32.31-.31-.02-.61-.13-.92-.2.09-.26.15-.54.26-.79.17-.36.39-.71.59-1.06.03 0 .07 0 .11.01zM66.28 70.36c-.41.74-.74 1.33-1.14 2.05-.12-.7-.22-1.25-.31-1.8-.05-.31.09-.47.42-.41.3.04.61.09 1.03.16z" style="fill:#f19021"/>
    <path class="st0" d="M13.92 22.82c-.51.1-.94.18-1.39.27.11-.71.22-1.36.32-2.01.04-.01.09-.01.13-.02.31.56.6 1.12.94 1.76z" style="fill:#f19021"/>
</svg>
