<svg version="1.1" id="Layer_1" xmlns="http://www.w3.org/2000/svg" x="0" y="0" viewBox="0 0 59.95 59.89" style="enable-background:new 0 0 59.95 59.89" xml:space="preserve"><style>.st0{fill:#dadada}</style><path class="st0" d="M19.49 26.88v-.29c0-2.2.01-4.41 0-6.61-.01-2.8.88-5.26 2.75-7.35 1.71-1.92 3.85-3.11 6.39-3.48 3.72-.53 6.92.59 9.51 3.31 1.64 1.71 2.57 3.78 2.82 6.14.05.47.07.95.07 1.43.01 2.19 0 4.38 0 6.56v.28h.25c.94 0 1.88-.01 2.83 0 1.45.01 2.62 1.18 2.62 2.64 0 6.49.01 12.97 0 19.46 0 1.5-1.2 2.64-2.73 2.64H16.55c-1.62 0-2.77-1.15-2.77-2.76V29.61c0-1.59 1.15-2.74 2.74-2.75h2.7c.08.02.16.02.27.02zm17.41 0c0-.09.01-.16.01-.23 0-2.2.01-4.4 0-6.61 0-.43-.04-.85-.12-1.27-.61-3.64-4.32-6.11-7.91-5.29-3.12.71-5.23 3.34-5.24 6.55-.01 2.21 0 4.42 0 6.63 0 .07.01.14.01.22H36.9zm-8.11 15.05v1.91c0 .41.1.51.52.51h1.93c.43 0 .53-.09.53-.52v-3.8c0-.19.05-.29.22-.39 1.37-.83 1.95-2.48 1.4-3.96a3.312 3.312 0 0 0-3.65-2.12 3.322 3.322 0 0 0-2.7 2.64c-.26 1.37.36 2.76 1.58 3.47.15.09.19.18.19.34-.03.63-.02 1.28-.02 1.92zM33.39 234.34v-1.92c0-2.43-.01-4.87 0-7.3.01-1.5 1.13-2.53 2.6-2.41.59.05 1.07.34 1.48.75 1.84 1.84 3.68 3.69 5.53 5.53l10.5 10.5c1.2 1.2 1.19 2.53 0 3.73l-16 16c-.94.93-2.17 1.06-3.18.32-.68-.5-.93-1.21-.93-2.03V248.36h-13c-1.27 0-2.18-.64-2.46-1.74-.07-.28-.08-.57-.08-.86-.01-2.93-.01-5.87 0-8.8 0-1.66.94-2.6 2.59-2.6h12.4c.17-.02.33-.02.55-.02z"/><path class="st0" d="M5.41 241.34v-9.16c0-4.73 3.12-8.49 7.77-9.36.56-.1 1.15-.12 1.73-.13 2.59-.01 5.19-.01 7.78-.01.94 0 1.37.43 1.38 1.37v3.44c0 .99-.42 1.41-1.42 1.41h-7.78c-1.63 0-2.87.99-3.17 2.52-.05.27-.05.55-.05.82 0 6.05.03 12.11-.02 18.16-.01 1.76 1.23 3.4 3.36 3.37 2.54-.03 5.08-.01 7.62-.01 1.08 0 1.47.39 1.47 1.48v3.47c0 .79-.47 1.25-1.25 1.25-2.75 0-5.5.03-8.25-.01-5.05-.07-9.11-4.18-9.14-9.24-.05-3.11-.03-6.24-.03-9.37z"/></svg>